<svg id="Capa_1" data-name="Capa 1" xmlns="http://www.w3.org/2000/svg" viewBox="0 0 551.43 223.56"><defs><style>.cls-1{fill:#b1945f;}.cls-2{fill:#952647;}.cls-3{fill:none;}</style></defs><title>LogoRojo</title><path class="cls-1" d="M162.81,106.79a29.72,29.72,0,0,0-2.24-9.35,1,1,0,0,0-.84-.35.63.63,0,0,0-.46.17v.37a32.3,32.3,0,0,1,2.06,8.64,14.42,14.42,0,0,1-.86,5.92,19.61,19.61,0,0,0-.07,4.59c0,.62-.3.91-.56.91s-.57-.24-.6-1c-.14-1.74-.19-3.25-.23-4.57V112a29.48,29.48,0,0,0-.63-6.35c-.24-1-1.25-2.57-3-4.58a13,13,0,0,1-1.64-3.54c-.08-.26-.14-.54-.22-.86s-.18-.71-.29-1l-.6-2a.48.48,0,0,0-.4-.19,1.17,1.17,0,0,0-.83.44.74.74,0,0,0-.15.59l1.67,5.67a10.37,10.37,0,0,0,2,2.91l0,0c.47.52.88,1,1.27,1.52a4.85,4.85,0,0,1,.95,2.68c.28,1.94.51,4.7.71,8.69l1.13,5.72a19.06,19.06,0,0,1-.24,6.35c-.06.85,0,1.13.13,1.22l.13,0c.09,0,.38-.06,1-.64,1.59-1.94,1.5-8.49,1.43-13.77a27,27,0,0,1,.75-4.28,13.15,13.15,0,0,0,.56-3.88"/><path class="cls-1" d="M157.1,98.17l-.1-1a1.05,1.05,0,0,0-.18-.54,1.84,1.84,0,0,0-1.1-.87,1.48,1.48,0,0,0-.37-.06l-.14,0s-.06.08,0,.25a9,9,0,0,0,2.71,5.35l.19.06h.05a1.25,1.25,0,0,0,0-.56l-.72-1.71a3,3,0,0,1-.28-1"/><path class="cls-1" d="M150.09,113.45l0,0H150c-.26,0-.52-.27-.63-.66-.42-.54-.87-2.13-1.42-5a19.35,19.35,0,0,0-.49-2.1,5.61,5.61,0,0,0-1.81-3.17,15.55,15.55,0,0,1-4.73-6.24c-.26-.58-.58-.93-.82-.92a.37.37,0,0,0-.32.2,1.41,1.41,0,0,0-.15,1.19,14.75,14.75,0,0,0,2,3.71,5,5,0,0,0,.88.89l.18.14a15.89,15.89,0,0,1,2.86,2.79,6.83,6.83,0,0,1,1,3.08c0,.23.09.47.13.7l0,.17a28.35,28.35,0,0,0,2.88,8,9.48,9.48,0,0,1,.8,2.63l.51,3.4c.15.88.44,1.1.58,1.1l.16-.08a1.32,1.32,0,0,0,.23-.93,65.19,65.19,0,0,0-.48-10.1c-.51-4-1.22-6.63-2.14-8a1,1,0,0,0-.8-.58l-.09,0a1.1,1.1,0,0,0,.15.64,24.15,24.15,0,0,1,1.92,8.11,1.07,1.07,0,0,1-.2.82Z"/><path class="cls-1" d="M143.85,96.05a.68.68,0,0,0-.72-.5.6.6,0,0,0-.44.18l0,.17a8.68,8.68,0,0,0,2.5,4.19l.29.16.08,0a.58.58,0,0,0-.09-.41,9.7,9.7,0,0,1-1.6-3.74"/><path class="cls-1" d="M154.81,113.74h-.1c-.16,0-.39-.09-.61-.56a2.41,2.41,0,0,1-.22-.77l-.94-5.84a10,10,0,0,0-2.18-4.52c-1.58-1.57-2.83-3.73-4.24-7.21-.2-.81-.5-1-.63-1s-.31.24-.38.7a1.67,1.67,0,0,0,.09.91c1,3.15,2.16,5.28,3.74,6.73a5.59,5.59,0,0,1,2,3.55v.06c.14.69.29,1.38.42,2.08l0,0a48.42,48.42,0,0,0,2.46,9.11,8.23,8.23,0,0,1,.66,2.71c.12,2.18.23,3.51.36,4.62.11.88.4,1.26.58,1.26s.4-.31.52-1.1a51.62,51.62,0,0,0,0-11.06,40.38,40.38,0,0,0-.74-6,6.09,6.09,0,0,0-1.11-2.43c-.36-.43-.53-.53-.61-.55a1.45,1.45,0,0,0,0,.6,45.75,45.75,0,0,1,1.29,7.59,1.15,1.15,0,0,1-.2.93Z"/><path class="cls-1" d="M151.06,99.56A10.48,10.48,0,0,1,150,97l-.29-1.49a1.3,1.3,0,0,0-.32-.72,1.26,1.26,0,0,0-.89-.45.4.4,0,0,0-.31.11.47.47,0,0,0-.06.4,10.33,10.33,0,0,0,2.81,5.51l0,0c.12.12.19.18.31.19h0l.09,0s0-.12,0-.33a1.75,1.75,0,0,0-.28-.63"/><path class="cls-1" d="M144.74,113.38l0,.12c.13.39.24.74.38,1.11a2.2,2.2,0,0,0,.43.85.56.56,0,0,0,.42.24c.19,0,.28-.22.33-.34a2.37,2.37,0,0,0,0-.87c-.32-5.86-1.13-9.2-2.6-10.82-.32-.31-.47-.32-.48-.32s-.05,0-.07.27a1.07,1.07,0,0,0,.19.59,10.23,10.23,0,0,1,.94,2.67,1,1,0,0,1-.11.79l-.14.09-.05,0H144c-.24,0-.48-.24-.66-.66a7.18,7.18,0,0,0-3-3.72,19.51,19.51,0,0,1-4.45-3.42,11.22,11.22,0,0,1-1.19-1.85c-.07-.14-.12-.25-.29-.29s-.55.39-.64.78a.57.57,0,0,0,.1.52,9.07,9.07,0,0,0,3.77,3.94,10.21,10.21,0,0,1,5.22,5,54.65,54.65,0,0,1,1.92,5.28"/><path class="cls-1" d="M136.84,97.07a.73.73,0,0,0-.57.23v.12a7.93,7.93,0,0,0,3,3l.28.07.1,0s0-.16-.19-.34a9.09,9.09,0,0,1-2-2.8.66.66,0,0,0-.59-.29"/><path class="cls-1" d="M131.5,103l.17.06a17.66,17.66,0,0,1,1.72.68,4.66,4.66,0,0,1,1.53,1,27.18,27.18,0,0,1,2.93,3.59l.17.22a38.78,38.78,0,0,0,2.43,3.16.61.61,0,0,0,.47.23.31.31,0,0,0,.29-.14.62.62,0,0,0,.07-.55,37.25,37.25,0,0,0-2.63-6.29,1.34,1.34,0,0,0-1.17-.57h-.07l0,.12.62,1.14.06.27V106l0,.06a.36.36,0,0,1-.3.19l-.05,0-.24-.1,0,0,0-.06a10.58,10.58,0,0,0-1.63-1.94,2.8,2.8,0,0,0-1-.64c-.59-.26-1.31-.53-2.18-.85a12.08,12.08,0,0,1-1.6-1c-.52-.45-1.09-1-1.7-1.53A.63.63,0,0,0,129,100a.29.29,0,0,0-.26.16.86.86,0,0,0,0,.79,4.91,4.91,0,0,0,1.69,1.64,5.19,5.19,0,0,0,1,.44"/><path class="cls-1" d="M153.12,126.47c-1.57-1-2.67-1.69-3.53-2.32-6.09-4.6-12.25-9.06-18.82-13.59a.64.64,0,0,0-.35-.15s-.07,0-.1.11a1.19,1.19,0,0,0,.62,1.16l19.63,14.4.23.15a1.75,1.75,0,0,1,.72.6c.08.15.2.55-.35,1a4.09,4.09,0,0,1-1.91.5,5.42,5.42,0,0,1-3.37-1.29c-5.23-4.1-10.44-8.3-15.27-12.21a.63.63,0,0,0-.36-.15l-.11.06a.87.87,0,0,0,0,.74,1.41,1.41,0,0,0,.53.71c5.08,4.1,10.18,8.26,15.13,12.34a6.51,6.51,0,0,0,3.32.91,6.73,6.73,0,0,0,4.15-1.7.85.85,0,0,0-.19-1.22"/><path class="cls-1" d="M145.8,125.46a14,14,0,0,0,2.25,1.39,1.26,1.26,0,0,0,.44.1c.13,0,.21,0,.23-.1s0-.26-.28-.48l-17.56-13.58-.24-.1-.12.08a1.21,1.21,0,0,0,.51,1Z"/><path class="cls-1" d="M141.54,126.23l-11.42-9.56a.66.66,0,0,0-.35-.14l-.1,0c0,.1,0,.36.32.67,3.31,3,6.91,6.2,10.67,9.38a11.06,11.06,0,0,0,1.55,1.16,1.21,1.21,0,0,0,.62.17.44.44,0,0,0,.42-.21s0-.1-.06-.21Z"/><path class="cls-1" d="M132.71,101.31l.28,0,.11,0a.75.75,0,0,0,0-.21,2.62,2.62,0,0,0-.49-.77,1.84,1.84,0,0,0-.88-.58,1.88,1.88,0,0,0-.62-.12c-.14,0-.2,0-.23.08l.05.2a5.42,5.42,0,0,0,1.81,1.39"/><path class="cls-1" d="M143.64,130.42a3.24,3.24,0,0,0,1.71-.5c.15-.13.22-.24.19-.34s-.13-.23-.3-.32l-.27,0c-.07,0-.16,0-.35.06l-.17,0a7.61,7.61,0,0,1-.77.09,4,4,0,0,1-2.59-1c-2.81-2.35-5-4.37-6.94-6.16l-.19-.15c-1.46-1.33-2.83-2.6-4.33-3.88a.36.36,0,0,0-.29-.12h-.13a.59.59,0,0,0,0,.37c0,.14.13.22.33.44l.67.68c3.44,3.23,6.53,6.14,9.75,9a7,7,0,0,0,2.28,1.63,5.63,5.63,0,0,0,1.39.19"/><path class="cls-1" d="M128.19,119.34c2.52,2.75,5.17,5.45,8.12,8.26a3.82,3.82,0,0,0,2,1.2l.15-.06a.89.89,0,0,0-.2-.24c-2.62-2.23-5.4-5-7.77-7.37-.15-.18-.31-.33-.47-.5l-.17-.18a10.35,10.35,0,0,0-1.5-1.44l-.24,0a.37.37,0,0,0,.06.31"/><path class="cls-1" d="M139.55,130.88a3.5,3.5,0,0,0,.66-.1.17.17,0,0,0,.14-.22.51.51,0,0,0-.52-.39,5.6,5.6,0,0,1-3.26-1.25c-3-2.79-6-5.71-8.85-8.68-.13-.12-.22-.17-.29-.17l-.08,0a1.31,1.31,0,0,0,.17.83,2.21,2.21,0,0,0,.43.53l.06.06c1.66,1.76,3.85,4,6.68,6.72a10.08,10.08,0,0,0,2.72,2.08,4.93,4.93,0,0,0,2.14.57"/><path class="cls-1" d="M135.22,130c.15,0,.21-.07.21-.16a.68.68,0,0,0-.57-.56c-1.38-.24-3.2-2.29-5.13-4.47l-1-1.14-.21-.1-.16.18a.35.35,0,0,0,0,.34l4.05,4.66A3.7,3.7,0,0,0,135.2,130Z"/><path class="cls-1" d="M84.34,80.13l0,0a1.59,1.59,0,0,1,.56-.11,1.15,1.15,0,0,1,.61.15,1,1,0,0,0,.35.07.74.74,0,0,0,.46-.17,4.3,4.3,0,0,1,1.51-1.18,3.56,3.56,0,0,1,.76-.13,2.61,2.61,0,0,1,1.62.6c.21.24.28.46.2.63s-.26.31-.62.36c-.2,0-.4,0-.62,0a6.39,6.39,0,0,0-1.6.22,2.68,2.68,0,0,0-2.11,3v0c0,.25,0,.94-.55,1a1.08,1.08,0,0,1-.71-.37,2.86,2.86,0,0,1-1-2.08,2.74,2.74,0,0,1,1.12-1.93m-1.79,1.28a2.3,2.3,0,0,0-.25,2,4.42,4.42,0,0,0,4.34,2.88h.1c.5,0,.88-.15,1-.36s-.15-.45-.27-.57a2.51,2.51,0,0,1-1-2.76A2.77,2.77,0,0,1,89.13,81a3,3,0,0,1,.81.07,3.31,3.31,0,0,0,1.61-.47,3.64,3.64,0,0,1,2.26-1,2.53,2.53,0,0,1,1.06.21l0,0a.72.72,0,0,1,0,1.11,1.63,1.63,0,0,1-.93.47,4.81,4.81,0,0,0-1.82.81c-.07.11-.12.22-.1.27s.09.09.47.16a4.5,4.5,0,0,0,.63.07,2.24,2.24,0,0,0,.65-.12,13.29,13.29,0,0,0,3.4-2.15c.36-.33.37-.56,0-.94a4.34,4.34,0,0,0-3-1.27,4.71,4.71,0,0,0-1.19.18,7.22,7.22,0,0,1-1.65.23,3.19,3.19,0,0,1-1.17-.15l-2.41-.71a2.58,2.58,0,0,0-1.06-.22,1.35,1.35,0,0,0-.95.37l-.15.15.27.18c.23.2.31.41.24.59s-.43.34-.72.37l-.56,0a.92.92,0,0,0-.73.27,7.64,7.64,0,0,0-1.59,2"/><path class="cls-1" d="M86.79,76.14a6.55,6.55,0,0,0,1.7.66l.17,0a.74.74,0,0,0,.48-.28,3.5,3.5,0,0,0,.59-1.48,4.65,4.65,0,0,1,1-2l.26-.29a2.59,2.59,0,0,0,.66-1.2,1.82,1.82,0,0,0-.57-2.11v.42a4.84,4.84,0,0,1-2.21,3.46l-.5.36a8.19,8.19,0,0,0-1.32,1.06,1.33,1.33,0,0,0-.54.94.56.56,0,0,0,.26.42"/><path class="cls-1" d="M91,73.93c-.19,0-.32.1-.23.23.81,1.4.44,1.94-.76,2.5-.45.12-.2.55.2.5a.83.83,0,0,0,.38-.07,1.85,1.85,0,0,0,1-2.72c-.2-.38-.47-.47-.63-.44"/><path class="cls-1" d="M92.81,71.19c.21,0,.32-.35.38-.65s0-1.13.52-1.24c.3-.07.24.55.4.63s.28-.07.33-.28a2.44,2.44,0,0,0-.83-1.92l-.12-.08s-.07,0-.15.23a10.64,10.64,0,0,0-.61,3c0,.2,0,.27.08.28"/><path class="cls-1" d="M92.68,73.24h.1c3.24-1.52,3.92-3.45,4-4.48A2.85,2.85,0,0,0,96,66.22l0,0h0a4.75,4.75,0,0,1-.86,4.25c-.71.59-1.56,1.23-2.41,1.85l-.38.27a.29.29,0,0,0-.12.34.57.57,0,0,0,.5.32"/><path class="cls-1" d="M96.69,73.41a11.94,11.94,0,0,1-2.49,1.47,2.92,2.92,0,0,0-1.3.84.56.56,0,0,0-.09.23l.13,0h0a14.88,14.88,0,0,0,4.59-2.51c1-.78,1.23-1.54.83-2.33-.11-.15-.19-.16-.25-.16a.69.69,0,0,0-.33.14c-.78.75-4,2.44-4.6,2.9-.22.17-.27.28-.27.33a.19.19,0,0,0,.28.16c.51-.12,2.65-1.48,3.16-1.73.73-.32.83-.22.88-.12s-.23.49-.58.76"/><path class="cls-1" d="M92.22,77.82a3.74,3.74,0,0,0,1.06-.26,25.36,25.36,0,0,1,4.5-1.91c.17,0,.4-.11.5,0a.66.66,0,0,1-.18,1.09l-1.93.86c-.11.09-.13.15-.13.16s.2.15.63.14h.07c1.93-.45,2.66-1.2,2.43-2.31a1.06,1.06,0,0,0-1-.62,3.12,3.12,0,0,0-1.66.28c-1,.38-2.41,1.2-3.3,1.53a6.88,6.88,0,0,0-1.12.56c-.2.12-.79.64.1.52"/><path class="cls-1" d="M98.3,69.19c.55-.47,1.1-1.79,1.46-1.1a2.39,2.39,0,0,1-.39,2c-.23.35,0,.55.26.69l.13.06s.11,0,.19-.15a4.16,4.16,0,0,0,.55-3,2.2,2.2,0,0,0-.84-1.48l-.26-.12c-.08,0-.19.1-.27.24l-.31,1.11a2.31,2.31,0,0,1-.6,1.09,1.26,1.26,0,0,0-.45.82c0,.31.16.14.53-.17"/><path class="cls-1" d="M101.3,70.63a10.63,10.63,0,0,1,2.78,1.19l.61.33c.71.38,1.51.8,2.39,1.17l.29.09c.1,0,.2-.11.32-.23h0a4.21,4.21,0,0,0,1.19-2.36l0-.08h-.09a2.89,2.89,0,0,1-.92.18,3.16,3.16,0,0,1-1.07-.2,12,12,0,0,0-5-1.6l-.21,0,0,.07v0l0,0,0,.18.08.06a15.75,15.75,0,0,1,5.21,2.07l.07.05c.14.08.44.26.46.42l0,.13a.56.56,0,0,1-.42.16l-.25-.1-.26-.12a34.58,34.58,0,0,0-4.94-2h0c-.18,0-.23.09-.24.15a.42.42,0,0,0,.18.35"/><path class="cls-1" d="M99.26,79.63c-.21,0-.61-.61-.77-1l-.16-.1-.17.1a.4.4,0,0,0-.08.34A2.38,2.38,0,0,0,99,80.43a.84.84,0,0,0,.48.14.86.86,0,0,0,.82-.72,2.24,2.24,0,0,0-.92-1.9l-.06.07a2.85,2.85,0,0,1,.34,1.38c-.08.24-.24.22-.37.23"/><path class="cls-1" d="M101.88,78.26c-.43,0-1-1.07-1.22-1.42l-.22-.12-.1,0a.53.53,0,0,0,0,.39,3.86,3.86,0,0,0,1,2,1,1,0,0,0,.62.2,2.58,2.58,0,0,0,1.64-1,1.09,1.09,0,0,0-.09-1.2,8.69,8.69,0,0,0-3.46-2.28l-.13,0h0l0,0a9.91,9.91,0,0,0,1.15.87l0,0a6.55,6.55,0,0,1,1.43,1.2.79.79,0,0,1,.13.74,1.23,1.23,0,0,1-.8.6"/><path class="cls-1" d="M99.76,73.47v.07c.17.53,4.46,2.6,5,2.84a1.6,1.6,0,0,0,.66.19.91.91,0,0,0,.6-.29,1.38,1.38,0,0,0,.31-1.75c-1-1.35-3-2.42-5.69-3.18h0l-.11,0h0v0l0,.12c0,.07.13.13.29.18a14.43,14.43,0,0,1,4,2.19l.07.07c.26.2.54.43.45.82a1.53,1.53,0,0,1-.42.55l-.23.06a3.72,3.72,0,0,1-1.42-.54l-.26-.14h0a13.22,13.22,0,0,0-3-1.3Z"/><path class="cls-1" d="M141.25,70.22c0,.08,0,.29.32.53,6.89,5,12.39,12.14,16.82,21.92a1,1,0,0,1-.11.86.6.6,0,0,1-.43.18,2.56,2.56,0,0,1-1.3-.52,15.11,15.11,0,0,1-4-4c-4.86-7.88-10.67-12.77-15.75-16.74-.16-.14-.26-.2-.35-.19l-.14,0a1.27,1.27,0,0,0,.42,1c4.78,3.25,10,9.22,16,18.28a9.44,9.44,0,0,0,8.23,4.13c.33,0,.69,0,1-.06.56-.14.63-.29.63-.29s-.07-.19-.32-.38a8.69,8.69,0,0,1-3.15-4.43,51.59,51.59,0,0,0-17.08-20.37,1.09,1.09,0,0,0-.54-.17c-.13,0-.23,0-.26.13"/><path class="cls-1" d="M155.49,91.49a1.24,1.24,0,0,0,.76.35.27.27,0,0,0,.24-.11c.12-.2,0-.63-.24-1.16a57.74,57.74,0,0,0-16.74-19,1.76,1.76,0,0,0-.76-.18c-.28,0-.42.09-.44.14s.07.22.55.5c4.29,3.38,9.63,8.34,16.63,19.45"/><path class="cls-1" d="M148.6,91.43a1.59,1.59,0,0,1-1.13-.75c-3.25-4.83-7.55-8.8-11.33-12.14l-.15-.1-.1.13A1.63,1.63,0,0,0,136,80a67.4,67.4,0,0,1,7.69,8l.09.1a43.13,43.13,0,0,0,4.2,4.53,3,3,0,0,0,1.56.45,1.48,1.48,0,0,0,1.2-.53,1.39,1.39,0,0,0,.2-1.16c-3.06-5.87-7.7-11.05-14.18-15.85-.15-.14-.24-.19-.3-.19l-.09,0a1.71,1.71,0,0,0,.5,1.44,69.43,69.43,0,0,1,12,13.33c.24.44.28.77.14,1a.49.49,0,0,1-.43.23"/><path class="cls-1" d="M135.14,81.37l-.11,0a.92.92,0,0,0,.05.82,58.3,58.3,0,0,1,8.09,8.66,1.18,1.18,0,0,1,.19,1.29,1.33,1.33,0,0,1-1.17.7,1.41,1.41,0,0,1-.94-.36c-1.85-1.6-3.6-3.43-5.29-5.21-.74-.77-1.5-1.59-2.21-2.31l-.2-.09-.2.2a1,1,0,0,0,0,.9l5.47,5.86a7.25,7.25,0,0,0,2.71,2,4.91,4.91,0,0,0,1.24.12,2,2,0,0,0,1.68-.67,2.22,2.22,0,0,0,.11-2c-2.3-4-5.41-6.86-9.36-10Z"/><path class="cls-1" d="M133.7,82.8a.76.76,0,0,0-.07.61A82.79,82.79,0,0,0,141.32,91l.19.07.17-.09a.33.33,0,0,0,0-.34,49.26,49.26,0,0,0-7.86-7.89Z"/><path class="cls-1" d="M132.88,87.15a.7.7,0,0,0-.36-.12.42.42,0,0,0-.35.22.61.61,0,0,0,.19.61,22,22,0,0,1,4.64,5,1.15,1.15,0,0,1,.08,1.18,1.24,1.24,0,0,1-1.1.56,2.29,2.29,0,0,1-1.06-.29,27.56,27.56,0,0,1-4.43-3.83l-.31-.3a.43.43,0,0,0-.21.23.74.74,0,0,0,0,.72c2.45,2.71,4.12,4.22,4.94,4.52a8.68,8.68,0,0,0,1.81.22,1.9,1.9,0,0,0,1.54-.57,2.65,2.65,0,0,0,0-2.21c-.46-1.12-2.44-3.3-5.41-6"/><path class="cls-1" d="M130.85,89.2l4.47,4.22.31.1.22-.1,0-.16a18.16,18.16,0,0,0-5.23-5,1.17,1.17,0,0,0,.2.93"/><path class="cls-1" d="M130.47,98.5a2.75,2.75,0,0,0,2.2-1.07,1.55,1.55,0,0,0,.14-1.52,20.55,20.55,0,0,0-3.66-4.08l-.17-.06a.32.32,0,0,0-.26.21.41.41,0,0,0,0,.4,15.94,15.94,0,0,1,2.77,3.21,1.28,1.28,0,0,1-.11,1.22,1.55,1.55,0,0,1-2,.42,18.55,18.55,0,0,1-2.74-2.59l-.17,0a.31.31,0,0,0-.26.18.61.61,0,0,0,0,.51,9.59,9.59,0,0,0,3.44,3.06,2.31,2.31,0,0,0,.89.15"/><path class="cls-1" d="M129.22,95.75a.81.81,0,0,0,.47.18.55.55,0,0,0,.45-.26.61.61,0,0,0-.17-.62,11.17,11.17,0,0,0-2.31-2.14.65.65,0,0,0-.32-.11.42.42,0,0,0-.42.41c0,.19.14.35.38.6.73.8,1.27,1.31,1.92,1.94"/><path class="cls-1" d="M127.38,98.37l-2.13-2.43-.21,0a.3.3,0,0,0-.27.16.54.54,0,0,0,0,.52l1.34,1.54a.93.93,0,0,1,.32.71c0,.49-.47.89-.9,1.26l0,0a2.71,2.71,0,0,0-.69.73.49.49,0,0,0,0,.51.3.3,0,0,0,.3.16l.23-.07,1.76-1.48a1.17,1.17,0,0,0,.27-1.61"/><path class="cls-1" d="M124.6,99.19l.2.11.22-.13a.38.38,0,0,0,0-.33L124,97l-.22-.13a.51.51,0,0,0-.35.2l0,.26Z"/><path class="cls-1" d="M124.89,67.94a3.1,3.1,0,0,0,1,.89A31,31,0,0,1,133.76,73a.87.87,0,0,1,.25.94.76.76,0,0,1-.72.45,1.68,1.68,0,0,1-.75-.21,24.17,24.17,0,0,0-6.47-3.47l-.08.12a.62.62,0,0,0,.43.64,35.38,35.38,0,0,1,6.91,4.07,1.72,1.72,0,0,0,.94.36,1,1,0,0,0,.76-.49c.5-1.35-.11-2.6-1.85-3.81A39.68,39.68,0,0,0,125,68Z"/><path class="cls-1" d="M126.63,72.73l-.12.11a.72.72,0,0,0,.29.74c.54.37,1.33.83,2.25,1.36,1.78,1,3.61,2.07,4,2.79a1.71,1.71,0,0,1,.07,1.64.93.93,0,0,1-.83.53,1.32,1.32,0,0,1-.67-.19l-4-2.3-.09,0,0,0a1.84,1.84,0,0,0,.6,1.31,20.08,20.08,0,0,0,2.88,2l.28.15a4,4,0,0,0,1.58.62,1.14,1.14,0,0,0,.61-.2,3.42,3.42,0,0,0,.65-3.53,27.15,27.15,0,0,0-7.45-5"/><path class="cls-1" d="M131.26,78.43l.28,0c.25,0,.54-.12.49-.19-.55-.84-4.87-3-4.87-3a1,1,0,0,0,.18.47,21.16,21.16,0,0,0,3.92,2.69"/><path class="cls-1" d="M127.45,84.58l2.42,1.77a1.53,1.53,0,0,0,.77.26,1,1,0,0,0,.6-.21,3.8,3.8,0,0,0,1.1-1.54,1.88,1.88,0,0,0-.79-2.31l-3.27-2.4-.15-.06-.11.08a.83.83,0,0,0,.13.76,15.86,15.86,0,0,1,2.52,2.21,1.32,1.32,0,0,1,.21,1.39.8.8,0,0,1-.7.52,1.06,1.06,0,0,1-.64-.25l-2-1.21a.38.38,0,0,0-.24.24.71.71,0,0,0,.11.75"/><path class="cls-1" d="M129.4,83.74a.42.42,0,0,0,.38-.27.4.4,0,0,0-.1-.44l-1.6-.92-.22.15v.33l1.39,1.13Z"/><path class="cls-1" d="M124.44,89a.57.57,0,0,0,.11.61l2.43,1.8a1,1,0,0,0,.48.14,1.69,1.69,0,0,0,1-.51l.31-.52c.65-1,1.11-1.76.37-2.84a6.68,6.68,0,0,0-2.38-2,.26.26,0,0,0-.22.19.77.77,0,0,0,.09.76l1.23,1.31a1.3,1.3,0,0,1,0,1.32,1.2,1.2,0,0,1-1,.69.88.88,0,0,1-.56-.17l-1.34-1-.2-.11c-.12,0-.24.14-.3.33"/><path class="cls-1" d="M125.4,87.52a.38.38,0,0,0,.13.42l.86.64.23.08c.14,0,.22-.15.25-.21a.46.46,0,0,0-.13-.48l-.84-.64-.15,0a.41.41,0,0,0-.35.23"/><path class="cls-1" d="M120.92,92.27a.29.29,0,0,0-.25.17.74.74,0,0,0,0,.69l1.83,2.13a.94.94,0,0,0,.71.28,3,3,0,0,0,2.14-1.65,1.87,1.87,0,0,0,.18-1.83,11.74,11.74,0,0,0-1.89-2.3l-.16-.1c-.08,0-.17.09-.25.22a.82.82,0,0,0,0,.8l.85,1.12a1.58,1.58,0,0,1-.13,1.44,1.15,1.15,0,0,1-1,.62,1.25,1.25,0,0,1-.74-.28l-1.11-1.23Z"/><path class="cls-1" d="M123.07,92.88a.35.35,0,0,0,.32-.21.36.36,0,0,0,0-.35l-1-.95-.14-.05a.34.34,0,0,0-.28.18.46.46,0,0,0,0,.38l1,1Z"/><path class="cls-1" d="M126.39,117.32c0,.24.12.64.46.63a1.19,1.19,0,0,0,.78-.45c2-2.61,1.32-10.84-1.24-14.92l-.18-.09a.37.37,0,0,0-.29.2.76.76,0,0,0,0,.72c2,4.55,2.67,8,2.1,10.86-.09.33-.25.76-.6.77s-.5-.18-.68-1.05a20.13,20.13,0,0,0-2.91-8.3,2.67,2.67,0,0,0,0,1.63c1.24,2.15,2.09,5.42,2.58,10"/><path class="cls-1" d="M124.68,103.46l-.07,0a1.64,1.64,0,0,0-.11,1.12,17.47,17.47,0,0,1,2.45,6.73l.08.12.17-.15a18.44,18.44,0,0,0-2.46-7.8Z"/><path class="cls-1" d="M112.3,65.79c.46.18.8.33,1.12.48.6.3,1.2.63,1.79,1,2.29,1.3,3.73,2.85,4.7,7.32l.11.49c1,4.33,1.54,6.94-2.82,10.45A1,1,0,0,0,117,86.6a.52.52,0,0,0,.49.35h.07A8.13,8.13,0,0,0,121,83.69c2.54-3.43-.26-11.19-1.19-13.73a6.6,6.6,0,0,0-3.79-3.73L111.22,64a1.77,1.77,0,0,1-.74-1.53c.06-.58.44-.7,1.08-1a4.71,4.71,0,0,1,2.1-.43c.59,0,1.19.05,1.79.09a42.71,42.71,0,0,1,21.79,7.23l0,0a.86.86,0,0,1,.16.89c-.17.36-.68.54-1.64.58a1.79,1.79,0,0,1-1.37-.54l-.62-1c-.05-.17-.13-.24-.19-.24s-.19.09-.24.27l-.26,1.35c0,.2,0,.28.24.31a9.42,9.42,0,0,0,3.1.5,8,8,0,0,0,4.92-1.81c.23-.32.34-.58.26-.72s-.38-.27-.83-.29a4.18,4.18,0,0,1-.5,0,7.49,7.49,0,0,1-4.47-1.36,44.77,44.77,0,0,0-23.16-6,4.05,4.05,0,0,0-2,.38,2.47,2.47,0,0,0-1.33,1.68,2.39,2.39,0,0,0,.6,2,5.47,5.47,0,0,0,2.39,1.46"/><path class="cls-1" d="M76.19,82.05c.36,1.06.88,1.64,1.61,1.75h3.14a.65.65,0,0,0,.5-.61.5.5,0,0,0-.36-.54l-2.5-.06c-.94,0-1.41-1.34-1.76-2.67-.76-2.8.61-4.84,2-6.51a2.07,2.07,0,0,0,.2-.3l-.17,0h0a.5.5,0,0,1-.25-.34.78.78,0,0,1,.27-.59l.43-.38,0-.15L79,71.53h0a13.36,13.36,0,0,0-3.73,3.39,2.06,2.06,0,0,0-.24,2Z"/><path class="cls-1" d="M82.59,79.58l-.14,0a5.26,5.26,0,0,1-1.6.3,2.55,2.55,0,0,1-2-.73l-.18-.06-.16.12a.52.52,0,0,0,0,.51,2.53,2.53,0,0,0,1.93,1,3.33,3.33,0,0,0,1.91-.8.31.31,0,0,0,.17-.29"/><path class="cls-1" d="M78.11,76.71a1.14,1.14,0,0,0-.08,1,.87.87,0,0,0,.57.42,3.9,3.9,0,0,0,.58.05c1.26,0,2.74-.73,4.52-2.16l.14-.22-.15.08a10.07,10.07,0,0,1-4,1.38.7.7,0,0,1-.54-.38c-.11-.28,0-.66.36-1.2A10.2,10.2,0,0,0,81.05,74c.15-.13.17-.26.08-.49a2,2,0,0,1-.08-.56c0-.14,0-.29,0-.41a1.47,1.47,0,0,1,.34-.84,3,3,0,0,1,.76-.64.54.54,0,0,0,.21-.62.84.84,0,0,0-.78-.56c-.92.34-1.25.81-1.13,1.59A2.37,2.37,0,0,1,80,73.65a12,12,0,0,0-1.9,3.06"/><path class="cls-1" d="M81.81,72.39a.57.57,0,0,0,0,.53,1.8,1.8,0,0,1,.32,1.9l.06,0a1.86,1.86,0,0,0,.69-1.12,1.83,1.83,0,0,0-.39-1.29c-.11-.14-.28-.32-.45-.28a.5.5,0,0,0-.27.31"/><path class="cls-1" d="M105.91,149.31c1.17.74,1.84,2.59,2.54,4.55.83,2.35,1.69,4.77,3.47,5.21a2.54,2.54,0,0,0,.72.12h.1a.73.73,0,0,0-.22-.2c-1.1-.38-1.7-2.19-2.42-4.28-.81-2.46-1.74-5.25-3.58-5.83a4.68,4.68,0,0,0-.6-.05.94.94,0,0,0-.38.07s.06.19.37.42"/><path class="cls-1" d="M109.18,148.85a1.24,1.24,0,0,0-.47.07.69.69,0,0,0,.2.21c1.24.68,2,2.69,2.81,4.82,1,2.56,2,5.22,3.78,5.18h0l.38-.07-.06,0c-1.08-.53-1.77-2.41-2.5-4.4-.95-2.57-2-5.48-4.17-5.79"/><path class="cls-1" d="M115.23,154.49l0,.07c.75,2,1.67,4.59,3.67,4.64l.24,0,0,0a7.85,7.85,0,0,1-2.4-4c-.51-1.54-1-2.89-2.57-3.34l-.2,0a.43.43,0,0,0-.2,0l.11.2c.56.3.92,1.28,1.37,2.53"/><path class="cls-1" d="M109.28,147.51l.32,0,.33,0c.57-.07.62-.47.62-.58a.53.53,0,0,0-.41-.54,8.27,8.27,0,0,0-1.31,0h0a8.21,8.21,0,0,1-2.73-.31l-.34-.13a1.14,1.14,0,0,0-.53-.13.56.56,0,0,0-.49.2.78.78,0,0,0,0,.75c.49.62,1.58.9,3.29.87.43,0,.87,0,1.25-.05"/><path class="cls-1" d="M126.59,147.32a2.12,2.12,0,0,0-2.15-1.37,2.36,2.36,0,0,0-2.49,2.27.58.58,0,0,0,.13.43.63.63,0,0,0,.46.2.55.55,0,0,0,.53-.38c.19-1.09.85-1.21,1.11-1.23a1.17,1.17,0,0,1,1.09.74,1,1,0,0,1-.41,1.07,1.25,1.25,0,0,0-.54,1.78,4,4,0,0,1,0,4.26,1.4,1.4,0,0,0,.81,2l0,0a.82.82,0,0,1,.12.86,1.12,1.12,0,0,1-1,.59,1.1,1.1,0,0,1-1.07-.86.7.7,0,0,0-.67-.62.59.59,0,0,0-.49.26.5.5,0,0,0-.07.49c.68,1.4,1.52,2.07,2.57,2.06a3.75,3.75,0,0,0,1.48-.39,2.07,2.07,0,0,0,.77-1.4,1.93,1.93,0,0,0-.47-1.42c-.54-.3-.64-1-.32-2a3.71,3.71,0,0,0-.06-3.47,1.7,1.7,0,0,1,.26-1.94,1.82,1.82,0,0,0,.32-1.94"/><path class="cls-1" d="M104.22,156.92a.79.79,0,0,0-.69-.49.31.31,0,0,0-.25.11l-.57,1a.93.93,0,0,1-.8.52,1,1,0,0,1-.77-.36.93.93,0,0,1-.15-.85,1.85,1.85,0,0,1,.73-1.05,1.47,1.47,0,0,0,0-1.44,4.87,4.87,0,0,1-.29-3.3l.38-1.5a1.15,1.15,0,0,0-.47-1.32,1.06,1.06,0,0,1-.51-1.24.93.93,0,0,1,.86-.69,1.06,1.06,0,0,1,.4.08,1.12,1.12,0,0,1,.64.75l.15.33a.92.92,0,0,0,.7.39.41.41,0,0,0,.35-.17,1,1,0,0,0,0-.82,2.48,2.48,0,0,0-2.51-1.85,2.06,2.06,0,0,0-1.48.59,1.93,1.93,0,0,0-.5,1.47,1.66,1.66,0,0,0,.54,1.34l0,0a1.93,1.93,0,0,1,0,2.16c-.4,1.41-.4,2.27,0,2.94a3.09,3.09,0,0,1,0,2.43l-.18.34a1.61,1.61,0,0,0-.25,1.44,2,2,0,0,0,2.06,1.55,3,3,0,0,0,1.49-.44,2.79,2.79,0,0,0,1.06-2"/><path class="cls-1" d="M121.65,159.82a1.26,1.26,0,0,0-.75.26,2.58,2.58,0,0,1-1.33.38h-.31c-4.42.07-8.78,0-13.34-.27a3.28,3.28,0,0,1-1.32-.37,2.2,2.2,0,0,0-.89-.22.56.56,0,0,0-.45.18.93.93,0,0,0,0,.75c.89,1.28,8.29,1.15,11.07,1.11l2.83-.05c1,0,1.91,0,2.4,0a5.1,5.1,0,0,0,2.51-.74.52.52,0,0,0,.27-.61.71.71,0,0,0-.71-.46"/><path class="cls-1" d="M105.78,67.67c4.25,1,7.24,2.33,8,5.9,0,1.41.33,2.33.85,2.71l.12.08,0-.32c.09-3.54-1-5.91-3.38-7.07a16.57,16.57,0,0,0-5.18-2.09A1.71,1.71,0,0,1,104.75,65a2.25,2.25,0,0,1,2.09-2.23h.25c.38,0,.57-.18.58-.27s-.09-.14-.25-.19h-.52c-1.43,0-2.79.35-2.93,2.6-.21,1.67.36,2.55,1.81,2.79"/><path class="cls-1" d="M106.36,64l-.07,0c.76,0,1.06.29,1.07.56s-.26.63-1.07.71l-.15,0a.65.65,0,0,0,.25.14,6.48,6.48,0,0,0,.83.07,1.63,1.63,0,0,0,1.37-.52.6.6,0,0,0,0-.59,1.47,1.47,0,0,0-1.34-.59,3.21,3.21,0,0,0-.85.14"/><path class="cls-1" d="M112.24,68.16a.93.93,0,0,0,.67.2.94.94,0,0,0,.6-.16l-.09-.11c-.85-1.08-3.52-1.86-4.63-1.27-.43.23,2.94.14,3.45,1.34"/><path class="cls-1" d="M113,74.92a7.26,7.26,0,0,0-3-3.06c-.31-.16-.36.12-.31.18a11,11,0,0,1,3.87,6,1.65,1.65,0,0,1-.3,1.32l-.18.16a3.58,3.58,0,0,0-.54.56.47.47,0,0,0-.07.55.64.64,0,0,0,.6.36h.16l2-1.56a.81.81,0,0,0,.24-.6.71.71,0,0,0-.13-.44c-1-.62-1.63-1.83-2.4-3.5"/><path class="cls-1" d="M107.15,76.42h-.1a.53.53,0,0,0,0,.31,24.67,24.67,0,0,1,.48,5.84.48.48,0,0,0,.14.38,1.12,1.12,0,0,0,.8.2,6.26,6.26,0,0,0,2.1-.94,1.62,1.62,0,0,0,.85-1.5,12,12,0,0,0-2.59-6.45c-.12-.13-.19-.15-.24-.14h-.06a.58.58,0,0,0,.06.44c1.74,3.19,2.18,5.17,1.43,6.45a1.93,1.93,0,0,1-1.11.6c-.27,0-.61-.13-.73-.82a14,14,0,0,0-.9-4.28Z"/><path class="cls-1" d="M109.5,79.84a1.51,1.51,0,0,0,0-.56c-.41-1.87-1.62-4.63-1.75-4.44l0-.06.06.22A27.15,27.15,0,0,1,109,80s.37.44.47-.19"/><path class="cls-1" d="M112.07,78.56c.26.51.57-.18.51-.37-.59-2-2.47-5-2.93-4.81a23.63,23.63,0,0,1,2.42,5.18"/><path class="cls-1" d="M103.17,82.5l.31-2.43a.39.39,0,0,0-.12-.39c-.06,0-.16.09-.28.31-.36.78-1.27,3.37-.75,4.3a.6.6,0,0,0,.48.31,6,6,0,0,0,.71,0,2.73,2.73,0,0,0,2.08-.78c1-1.14.87-3.43.73-5.45l0-.41c-.09-.39-.23-.56-.34-.56l-.2.12a.71.71,0,0,0-.16.57,10.16,10.16,0,0,1-.51,4.36,1.62,1.62,0,0,1-1.2.92c-.33,0-.69-.22-.72-.9"/><path class="cls-1" d="M104.65,81.47a14.7,14.7,0,0,0,0-2.58c0-.16-.1-.15-.14-.15a.27.27,0,0,0-.24.25,13.12,13.12,0,0,1-.3,2.48.46.46,0,0,0,0,.34l.18.07a.44.44,0,0,0,.44-.41"/><path class="cls-1" d="M103.47,74.32c.12.08.22.1.28.07l.1-.14a.38.38,0,0,0-.22-.47,26.29,26.29,0,0,0-3-1.23.12.12,0,0,0-.16.07.24.24,0,0,0,.15.27,27.24,27.24,0,0,1,2.86,1.43"/><path class="cls-1" d="M97.84,84.56a2,2,0,0,0,1.33.41,2.08,2.08,0,0,0,2-1.42l.66-2.8a.45.45,0,0,0-.06-.34l-.22-.08c-.27,0-.63.26-.74.81a6.71,6.71,0,0,1-.88,2.54.64.64,0,0,1-.54.33.45.45,0,0,1-.42-.22.49.49,0,0,1,.08-.51,3.53,3.53,0,0,0,.62-1.34.33.33,0,0,0,0-.31l-.13-.06a.54.54,0,0,0-.32.19,11.16,11.16,0,0,1-1.31,1.93c-.24.38-.26.64,0,.87"/><path class="cls-1" d="M90.33,81.72a1.4,1.4,0,0,0-.63-.16.55.55,0,0,0-.46.19c0,.11.07.25.13.31,2.88,2.07,3.63,4.64,2.2,7.63,0,.2,0,.33,0,.37l.1,0a.93.93,0,0,0,.48-.24c1.86-3,1.27-5.63-1.81-8.14"/><path class="cls-1" d="M65,94.59c.07.24.12.39.31.48l.17,0a.57.57,0,0,0,.49-.29.61.61,0,0,0,0-.61c-.57-1-.15-1.43.34-2l0,0a4.63,4.63,0,0,0,.44-.51.64.64,0,0,0,.19-.55.43.43,0,0,0-.47-.38A.81.81,0,0,0,66,91a6.75,6.75,0,0,1-1,.82l-.16.1-.18.12-.24.14c-.1.07-.36.24-.1.8A10.92,10.92,0,0,1,65,94.59"/><path class="cls-1" d="M67.17,95.52a.82.82,0,0,0,.61.41.43.43,0,0,0,.29-.16,1.09,1.09,0,0,0,.07-.91c-.57-1.34,0-1.78.75-2.46l.12-.08a.57.57,0,0,0,0-.55.46.46,0,0,0-.43-.23.78.78,0,0,0-.37.11c-1.51.92-1.75,1.84-1.08,3.87"/><path class="cls-1" d="M69,94.34l.3,1.79a.63.63,0,0,0,.57.45.53.53,0,0,0,.39-.2.76.76,0,0,0,.09-.6,1.87,1.87,0,0,1,.15-2.08l.66-.61a.67.67,0,0,0,.07-.61.56.56,0,0,0-.5-.27l-.27.05-.86.74a1.19,1.19,0,0,0-.6,1.34"/><path class="cls-1" d="M88,82.84a.77.77,0,0,0-.39-.11.62.62,0,0,0-.56.4,1,1,0,0,0,.25,1.09A5.36,5.36,0,0,1,89.51,87a3.48,3.48,0,0,1-.77,3l-5.62,5.18c-3.72,3.57-4.25,6.8-1.59,9.86l.18.09a.81.81,0,0,0-.14-.43c-2-4.16.7-6.5,4.13-9.46l0,0a39.52,39.52,0,0,0,5-4.91c1.28-2.6.38-5.06-2.76-7.5"/><path class="cls-1" d="M90.16,104a25.44,25.44,0,0,0-2.56.2l-.25.05a12.83,12.83,0,0,1-1.62.15c-1.52,0-2.6-.51-3.23-3.3,0-.38-.08-.52-.22-.62a.76.76,0,0,0-.33.65c0,3.65,2.48,3.71,6,3.8,1,0,2.15,0,3.33.2a4.6,4.6,0,0,1,3.49,3.19A4.09,4.09,0,0,1,93,112.39c-.33.29-.46.57-.37.79a.9.9,0,0,0,.83.41.85.85,0,0,0,.51-.14,5.08,5.08,0,0,0,2-5.23A5.58,5.58,0,0,0,91.23,104c-.38,0-.73,0-1.07,0"/><path class="cls-1" d="M83.85,90.35c-5.48,2.76-7.18,7.94-6.44,11.86a7.74,7.74,0,0,0,7,6.53l6.22,0a1.09,1.09,0,0,1,1,.54,1.33,1.33,0,0,1-.23,1.34.6.6,0,0,0-.14.49l.16.05a.92.92,0,0,0,.53-.24,2.18,2.18,0,0,0,.74-2.38,1.94,1.94,0,0,0-1.9-1.2c-1.11,0-2,.08-2.86.09-2.89,0-4.37-.14-5.11-.64a7.06,7.06,0,0,1-4.1-6.15c-.12-3.52,2.14-7.14,5.92-9.42,1.75-1.11,3.83-2.53,4.17-3.57a1,1,0,0,0,0-.78l-.13-.07a.64.64,0,0,0-.37.18c-.78,1.13-2.35,2.15-4.47,3.35"/><path class="cls-1" d="M73.12,102.74a2.9,2.9,0,0,0,.67,3.19,28.44,28.44,0,0,0,3.35,2.39c1.42.91,1.67,2.38,1.9,3.78l0,.06c.06.34.12.7.2,1.06a2.83,2.83,0,0,0,2.52,2.3H82c.31,0,.49-.19.5-.32s-.15-.31-.28-.36c-1.32-.49-1.9-1-2-1.91-.42-1.94-1-4.25-2-5a25.93,25.93,0,0,1-3.34-2.44,1.44,1.44,0,0,1-.72-.83c-.34-1,.11-2.72,1.36-5.22.43-2.67-.6-4.65-3.14-6A1.1,1.1,0,0,0,72,93.4c-.18,0-.22.07-.23.1A.54.54,0,0,0,72,94c2.32,1.78,3.75,3.44,1.12,8.73"/><path class="cls-1" d="M74.07,109.62a4.47,4.47,0,0,1,2.28,4c.32,4.07,2.35,6.11,6.06,6h0a3.76,3.76,0,0,0,1.65-.45c.14-.06.17-.12.17-.17s-.09-.43-.38-.75a1.06,1.06,0,0,0-.88-.41,1.62,1.62,0,0,0-.5.1l-.06,0a3.09,3.09,0,0,1-1,.21,3.13,3.13,0,0,1-.84-.13,4.27,4.27,0,0,1-3.24-4.1c.06-2.3-.56-3.86-1.83-4.64a10.71,10.71,0,0,1-3.77-3.32,4.55,4.55,0,0,1,.22-4.83c.13-.29.29-.6.43-.94a4.74,4.74,0,0,0,.39-2c0-2-.53-3.16-1.6-3.44l-.22,0c-.1,0-.3,0-.36.15s0,.39.38.77c1.35,1.09,1.32,3-.09,6-.87,1.92-1,3.45-.28,4.55a12.44,12.44,0,0,0,3.42,3.29"/><path class="cls-1" d="M86.08,119.23l.33,0c.06,0,.1-.09.07-.23a2.61,2.61,0,0,0-1.08-.28c-.12,0-.13,0-.13.06a.88.88,0,0,0,.81.49"/><path class="cls-1" d="M88.35,118.76a.44.44,0,0,0-.12-.28,2.16,2.16,0,0,0-1.33-.4h-.2c-.13.07-.16.12-.16.13s0,.12.12.24a1.94,1.94,0,0,0,1.31.45h.19Z"/><path class="cls-1" d="M88.6,117.25l-.33.11.06.18a1.38,1.38,0,0,0,1.35.75,4.46,4.46,0,0,0,.54-.06l.12-.09s0-.09-.09-.21a2.14,2.14,0,0,0-1.65-.68"/><path class="cls-1" d="M89.43,113.64a1.66,1.66,0,0,0,.74-.31c.19-.17.42-.35.6-.52s.17-.29,0-.45a1.42,1.42,0,0,1-.33-1.73.48.48,0,0,0,0-.44s0,0-.17,0h-.08a1.91,1.91,0,0,0-.58.34l0,0a2.22,2.22,0,0,0-1,2.42c.09.49.34.72.77.71Z"/><path class="cls-1" d="M84.92,117.84a.6.6,0,0,0,.22-.06l0-.06a2.18,2.18,0,0,1-.73-1.92,4,4,0,0,0-.84-2.39.83.83,0,0,0-.18.28,1,1,0,0,0,0,.87,1.66,1.66,0,0,1,.31,1.42c-.12,1.1.28,1.69,1.26,1.86"/><path class="cls-1" d="M86.39,117.31l.24,0c.33-.15.34-.24.34-.24s0-.06-.18-.18a1.9,1.9,0,0,1-.93-2.16,1.62,1.62,0,0,0-.25-1.61,1.64,1.64,0,0,1-.33-1.52l-.06-.09a1.48,1.48,0,0,0-.37.1,1.09,1.09,0,0,0-.52.63,2.41,2.41,0,0,0,.44,1.66,1.51,1.51,0,0,1,.34,1.34,2.34,2.34,0,0,0,.58,1.77.93.93,0,0,0,.7.35"/><path class="cls-1" d="M88.57,110.39c.17-.19.17-.25.17-.25l-.14-.09a2.47,2.47,0,0,0-.61,0,2,2,0,0,0-1.69.78,1.7,1.7,0,0,0,.1,1.64,1.37,1.37,0,0,1,.17,1.48,2.11,2.11,0,0,0,0,1.38A2,2,0,0,0,88,116.4a.82.82,0,0,0,.4-.09l-.09-.14a.83.83,0,0,1,0-1.23.48.48,0,0,0,.2-.3.75.75,0,0,0-.27-.47,2.52,2.52,0,0,1,.32-3.78"/><path class="cls-1" d="M94.8,117.34a3.5,3.5,0,0,1,1.58-1.08,5.87,5.87,0,0,0,1.8-1.35A3.09,3.09,0,0,0,97.4,111a.67.67,0,0,0-.36-.12.52.52,0,0,0-.39.23.91.91,0,0,0-.09.72l.6,1a1.29,1.29,0,0,1-.61,1.81,10.69,10.69,0,0,0-2.89,2,1,1,0,0,1-.76.48.94.94,0,0,1-.62-.24l-1-.9a.72.72,0,0,1-.15-.68.49.49,0,0,1,.46-.26,1,1,0,0,1,.33,0l.74.33.23.08s.13,0,.18-.22a1.51,1.51,0,0,0-1-1.54,1.85,1.85,0,0,0-.59-.07,2.61,2.61,0,0,0-2.09,1.38c-.55.82.6,1.64,1.8,2.52.32.22.73.53,1.06.8a1.44,1.44,0,0,0,.7.2,1,1,0,0,0,.51-.15,3.85,3.85,0,0,0,1.38-1.09"/><path class="cls-1" d="M97.91,118.72c.07,0,.15,0,.26,0a8.31,8.31,0,0,1,2.71,1c.24.1.45,0,.48-.13s-.07-.24-.23-.34A8,8,0,0,0,97,117.92a4.14,4.14,0,0,0-1.17.18,1.1,1.1,0,0,0-.71.85.54.54,0,0,0,.32.47l2.62.7,1.8.78.17,0a.42.42,0,0,0,.38-.18l-.13-.28a7.12,7.12,0,0,0-2.29-1c-.55-.16-.54-.38-.53-.44s.07-.25.44-.26"/><path class="cls-1" d="M99.44,115.16a2.93,2.93,0,0,0-.91.92,1.13,1.13,0,0,0,0,1c.46,1,2.33,1.43,3.23,1.65l0,0h.1c.25,0,.44-.09.47-.23l-.1-.24h0a6.24,6.24,0,0,1-2.37-1.49.9.9,0,0,1-.08-.91.93.93,0,0,1,.85-.37,3.58,3.58,0,0,1,1.21.22h0l.21-.11a.37.37,0,0,0-.09-.36,1.92,1.92,0,0,0-.93-.51,2.13,2.13,0,0,0-1.63.43"/><path class="cls-1" d="M101.06,116.17h0a.29.29,0,0,0-.31.19.39.39,0,0,0,.11.4,9.73,9.73,0,0,0,2.46,1.08h.1a.23.23,0,0,0,.22-.2.35.35,0,0,0-.2-.4,10.59,10.59,0,0,0-2.35-1.08"/><path class="cls-1" d="M101.55,122.92h.09a5.18,5.18,0,0,0,1-.12,10.29,10.29,0,0,1,3.61-.81c.27,0,.44-.16.45-.33s-.13-.35-.44-.41a2.92,2.92,0,0,0-.51,0,14,14,0,0,0-3.32.7l-.22,0a.36.36,0,0,1-.36-.18.77.77,0,0,1,.21-.75,7.78,7.78,0,0,1,3.59-2.16c.26-.11.34-.31.3-.46a.41.41,0,0,0-.47-.31,7.2,7.2,0,0,0-4.63,3,1.44,1.44,0,0,0-.22,1.35,1,1,0,0,0,.91.5"/><path class="cls-1" d="M104,120.2c-.11.17-.17.29-.14.35s.31.19.66.19a2.85,2.85,0,0,0,1.65-.49l.12-.2v0c0-.07-.25-.19-.8-.19a2.64,2.64,0,0,0-1.48.39"/><path class="cls-1" d="M100.27,112.67q-.27-.36-.15-.6a.62.62,0,0,1,.57-.28l.15,0-.06-.12a2.63,2.63,0,0,0-1.84-1c-.18,0-.23.07-.25.17-.1,1.4.71,2.4,2.42,3.07l.23,0,.12,0,0-.11Z"/><path class="cls-1" d="M98.16,106l0,.13a4.53,4.53,0,0,0,1.09,3.46,2.1,2.1,0,0,0,1.34.74.4.4,0,0,0,.3-.13,1,1,0,0,0,0-.79,1.34,1.34,0,0,0-.73-.69.38.38,0,0,1-.33.21c-.42,0-.83-.64-.83-1.36a1.34,1.34,0,0,0-.83-1.57"/><path class="cls-1" d="M102.32,111a1.14,1.14,0,0,0-.6-.44h-.07l0,0v.19c.4,2.41,1.07,5.06,3.1,6.43a1.14,1.14,0,0,0,.55.13c.57,0,.75-.58.81-.77a4,4,0,0,0-.38-2.37.53.53,0,0,0-.44-.24.18.18,0,0,0-.21.19l0,1.24a.55.55,0,0,1-.14.42l-.19.11h0a.73.73,0,0,1-.46-.22,5.83,5.83,0,0,1-1.64-4,1.07,1.07,0,0,0-.3-.71"/><path class="cls-1" d="M108.75,122.92a1.79,1.79,0,0,0,.76.17.85.85,0,0,0,.69-.32,3.93,3.93,0,0,0,.26-2.76v0a2.15,2.15,0,0,0-.5-.72l-.12,0a.84.84,0,0,0-.12.29l0,1.6c0,.45-.14.66-.39.67a.85.85,0,0,1-.49-.21,10.41,10.41,0,0,1-1.19-5.15c0-.65-.39-1-.6-1s-.2.17-.2.47c0,2.59.2,5.44,1.93,7Z"/><path class="cls-1" d="M108.86,120l.1,0a1.14,1.14,0,0,0,.12-.62l-.19-1.3a.52.52,0,0,0-.39-.32c-.15,0-.2.16-.23.26a2.25,2.25,0,0,0,.32,1.82c.12.13.22.19.27.19"/><path class="cls-1" d="M104.25,114.28c.14,0,.19-.34.19-.4a1.55,1.55,0,0,0-.31-.94c-.13-.15-.21-.17-.24-.17l-.21.17a1.32,1.32,0,0,0,.18,1,.54.54,0,0,0,.39.29"/><path class="cls-1" d="M114.1,69.14h-.19c-.18,0-.25.15-.25.19s.11.28.59.28a2.1,2.1,0,0,1,2.33,1.33.73.73,0,0,1,0,.73c-.14.21-.26.28-.66.28h0l0,.25a1.14,1.14,0,0,0,.62.2.87.87,0,0,0,.7-.34,1.05,1.05,0,0,0,.08-1,2.94,2.94,0,0,0-3.18-1.94"/><path class="cls-1" d="M115.54,71.28c.14,0,.19-.16.19-.27,0-.3-.19-.63-.73-.68a.35.35,0,0,0-.17.11s0,.2.28.58a.75.75,0,0,0,.43.26"/><path class="cls-1" d="M116.23,73.47a.29.29,0,0,0-.3.25.47.47,0,0,0,.23.34c1.25,0,1.73.76,1.72,2.36-.18.77-.5.72-.77.73a1.61,1.61,0,0,1-.72-.19.36.36,0,0,0-.4.13s0,.12,0,.25a2.45,2.45,0,0,0,1.73.66.68.68,0,0,0,.49-.15c.5-.36.63-1.06.38-2.17a2.28,2.28,0,0,0-2.38-2.21"/><path class="cls-1" d="M116.81,76.1a.29.29,0,0,0,.25-.15c0-.51-.08-.73-.18-.81a.9.9,0,0,0-.49-.08c-.23.1-.38.19-.41.28s0,.28.15.43a1.19,1.19,0,0,0,.68.33"/><path class="cls-1" d="M117.07,84l.19,0a4.7,4.7,0,0,0,2.13-3,1.94,1.94,0,0,0-.31-1.52,2.55,2.55,0,0,0-1.84-.67l-.23,0a.71.71,0,0,0-.7.39.37.37,0,0,0,.13.38l1.15.24a1.13,1.13,0,0,1,.67.53,2.26,2.26,0,0,1-.33,1.59c-.83,1-1.24,1.09-1.07,1.75,0,.31.15.31.21.31"/><path class="cls-1" d="M116.56,81.48a3.77,3.77,0,0,0,.44,0c.46,0,.49-.18.49-.3,0-.67-.36-.66-.48-.66a1.73,1.73,0,0,0-.52.11.49.49,0,0,0-.32.39c0,.16.16.32.39.42"/><path class="cls-1" d="M119.84,66.77h0l-.19.06a4.48,4.48,0,0,0,2.46.9c.38,0,.51-.11.56-.17a.49.49,0,0,0,0-.32c-2.68-4-5.68-4.45-8.25-4.41-.4,0-.84,0-1.28.07-.17,0-.28.08-.28.12s.55.59,1.14.61.92-.08,1.38-.09a6.16,6.16,0,0,1,5.15,2c.27.35.35.62.24.84s-.42.37-.92.38"/><path class="cls-1" d="M117.82,65c-.29,0-.61,0-.84.07s-.14.07-.14.1,0,.18.3.31a3.3,3.3,0,0,0,1.14.21,1.84,1.84,0,0,0,.61-.11c.17-.11.17-.16.17-.17s0-.1-.3-.27a2.35,2.35,0,0,0-.94-.14"/><path class="cls-1" d="M125.16,65.79a1.31,1.31,0,0,1-.77-.35,5.75,5.75,0,0,0-2.76-1.82l-.32,0,0,.06a10,10,0,0,0,5.18,3.54,2.33,2.33,0,0,0,.49.06.51.51,0,0,0,.34-.1.38.38,0,0,0,.07-.29,2.42,2.42,0,0,0-1.88-2.29,1,1,0,0,1,0,1,.5.5,0,0,1-.45.23"/><path class="cls-1" d="M128.84,145.15a1,1,0,0,0,.47-.11l.17-.11a.81.81,0,0,1-.5-.61,1.74,1.74,0,0,1,.61-1.44c2.95-1.55,3.86-2.91,3.47-5.25a.35.35,0,0,0-.08-.28.82.82,0,0,0-.58-.21.88.88,0,0,0-.83.53,5,5,0,0,1-1.62,3.24,17.32,17.32,0,0,1-8.28,2.5,2.83,2.83,0,0,0-2.75,1.62l-1,2.6a1.14,1.14,0,0,1-1.17,1l-2.54-.23a.91.91,0,0,1-.68-.3.82.82,0,0,1-.17-.62,20.29,20.29,0,0,1,.88-6.24,2.27,2.27,0,0,0-.22-1.9c-.09-.16-.2-.23-.26-.23s-.15,0-.32.42c-.93,1.69-1.41,4.54-1.44,8.66,0,.79.18,1.26.9,1.42l5.28.39c.76,0,1.11-.3,1.13-.94.27-2.7,1.17-4.08,2.64-4.13,1.19-.2,2.61-.44,4.19-.67l.32,0c.61,0,.89.19,1,.38a2.83,2.83,0,0,0,1.41.5"/><path class="cls-1" d="M126,136.1h-.22c-.74.18-.95.64-.9,1a.68.68,0,0,0,.62.64.78.78,0,0,0,.41-.14,4.46,4.46,0,0,1,1.69-1.16,3.83,3.83,0,0,0-1.6-.35"/><path class="cls-1" d="M124.81,141.12a1,1,0,0,0,.36-.05,3.66,3.66,0,0,0,1.51-.93,7.24,7.24,0,0,1-2.09-.38l-.2,0a.53.53,0,0,0-.56.58.77.77,0,0,0,.24.54.93.93,0,0,0,.74.26"/><path class="cls-1" d="M122.69,137.17a4.53,4.53,0,0,1,1.25-1.65,3.62,3.62,0,0,0-.46,0,3.83,3.83,0,0,0-1.46.29c-.5.31-.71.7-.59,1.09a.78.78,0,0,0,.74.59.61.61,0,0,0,.52-.3"/><path class="cls-1" d="M116.23,145.6a.53.53,0,0,0,.51-.43,4.35,4.35,0,0,1,.67-1.94,3.36,3.36,0,0,0-1.62.76,1,1,0,0,0-.27,1.15.81.81,0,0,0,.71.46"/><path class="cls-1" d="M138.77,143.59a4.52,4.52,0,0,1,2.44-.75,4.43,4.43,0,0,0-2.35-1.14c-2.07,0-1.51,2.51-.09,1.89"/><path class="cls-1" d="M141.62,140.22a5.15,5.15,0,0,1,.49-2,3.06,3.06,0,0,0-1.55.82,1.07,1.07,0,0,0-.25,1.15.87.87,0,0,0,.77.49.55.55,0,0,0,.54-.47"/><path class="cls-1" d="M145.48,139.17l-.47,0a3.62,3.62,0,0,0-1.42.3c-.5.32-.71.74-.57,1.15a.79.79,0,0,0,.73.58.61.61,0,0,0,.51-.31,4.39,4.39,0,0,1,1.22-1.7"/><path class="cls-1" d="M143.06,143.63a1.4,1.4,0,0,0,.38,0,3.76,3.76,0,0,0,1.56-1,7.32,7.32,0,0,1-2.17-.4l-.21,0a.56.56,0,0,0-.59.59.8.8,0,0,0,.26.56,1.1,1.1,0,0,0,.77.27"/><path class="cls-1" d="M119.74,140.67a.78.78,0,0,0,.75.53,1.07,1.07,0,0,0,.85-.54,3.63,3.63,0,0,0,.46-1.72,6.21,6.21,0,0,1-1.75,1.05.58.58,0,0,0-.31.68"/><path class="cls-1" d="M110.11,135.76A4,4,0,0,0,108,137a4.48,4.48,0,0,1,2.45.68c1.43.55,1.74-1.94-.29-1.87"/><path class="cls-1" d="M105,134a.69.69,0,0,0,.61-.54,1.11,1.11,0,0,0-.65-1.15,3.64,3.64,0,0,0-1.33-.22,3.89,3.89,0,0,0-.49,0,4.54,4.54,0,0,1,1.33,1.56.66.66,0,0,0,.53.31"/><path class="cls-1" d="M101.93,133.91c0-.41-.25-.88-1.07-1a3.39,3.39,0,0,0-1.68.51,4.47,4.47,0,0,1,1.81.94.76.76,0,0,0,.41.13.59.59,0,0,0,.53-.6"/><path class="cls-1" d="M102.72,136.47a4.23,4.23,0,0,1-2.33.67,4.35,4.35,0,0,0,2.23,1.12c2,0,1.48-2.35.1-1.79"/><path class="cls-1" d="M105.47,136.53a1.55,1.55,0,0,0,.62.15.72.72,0,0,0,.75-.72.59.59,0,0,0-.66-.61c-.3,0-.54.06-.78.07a5,5,0,0,1-1.23-.15,3.7,3.7,0,0,0,1.3,1.26"/><path class="cls-1" d="M91.7,133.47a1.38,1.38,0,0,0,.72.21.68.68,0,0,0,.7-.68c0-.19,0-.62-.73-.66a4.27,4.27,0,0,1-1.78-.33,3.86,3.86,0,0,0,1.09,1.46"/><path class="cls-1" d="M86.68,133.94a1.24,1.24,0,0,0,.65.17.69.69,0,0,0,.71-.69.6.6,0,0,0-.6-.65H87a4.16,4.16,0,0,1-1.51-.24,3.71,3.71,0,0,0,1.16,1.4"/><path class="cls-1" d="M84.54,129.45a2,2,0,0,0-.36,0,3.79,3.79,0,0,0-1.42.36,4,4,0,0,1,1.12.81l0,0c.11.09.3.26.41.26a1,1,0,0,0,.36.08.75.75,0,0,0,.72-.62c0-.39-.27-.72-.86-.9"/><path class="cls-1" d="M75.57,123.75l0,0a.79.79,0,0,0,.76.68.56.56,0,0,0,.47-.24,1.1,1.1,0,0,0,.06-1,3.44,3.44,0,0,0-1.23-1.33,4.59,4.59,0,0,1-.05,1.36,1.33,1.33,0,0,0,0,.51"/><path class="cls-1" d="M74,121.94a3.68,3.68,0,0,0-1.21-1.32,4.8,4.8,0,0,1-.06,1.37,1.28,1.28,0,0,0,0,.51l0,0a.75.75,0,0,0,.75.65.56.56,0,0,0,.45-.23,1.1,1.1,0,0,0,.07-1"/><path class="cls-1" d="M73.54,124.48a1.09,1.09,0,0,0-.26,0,4.55,4.55,0,0,1-1.62-.58,3.17,3.17,0,0,0,1.07,1.77,1.14,1.14,0,0,0,.59.19.75.75,0,0,0,.7-.57.69.69,0,0,0-.48-.77"/><path class="cls-1" d="M76.27,127.93a1.1,1.1,0,0,0,.68.26.7.7,0,0,0,.67-.54.71.71,0,0,0-.44-.79,1.07,1.07,0,0,0-.23-.07,4.36,4.36,0,0,1-1.57-.72,3.35,3.35,0,0,0,.89,1.86"/><path class="cls-1" d="M113.13,133.32a.75.75,0,0,0,.11-.52,9.45,9.45,0,0,1-.06-1.73c0-.13,0-.38-.66-.49a2,2,0,0,0-.36,0,2.47,2.47,0,0,0-2.42,1.8,2.58,2.58,0,0,0,1,2.91.85.85,0,0,0,.38.14l0,0a1.11,1.11,0,0,0-.08-.61.94.94,0,0,1,.13-.87c.25-.34.76-.49,1.66-.51Z"/><path class="cls-1" d="M116.3,140h0c.23,0,.39-.05.44-.13v-.11c-.55-.45-.8-.81-.8-1.19s.34-.76.8-1.1c.3-.34.33-.65.12-.91a5,5,0,0,1-1.11-1.3.52.52,0,0,0-.46-.29,1.15,1.15,0,0,0-.65.29,2.5,2.5,0,0,0-.89,2.9A2.61,2.61,0,0,0,116.3,140"/><path class="cls-1" d="M134,139.56l.07,0a1.91,1.91,0,0,0,.81.15A2.25,2.25,0,0,0,137,138a2.81,2.81,0,0,0-1.23-3.19.87.87,0,0,0-.51-.21.64.64,0,0,0-.43.23,11.47,11.47,0,0,1-1.12,1.39.58.58,0,0,0,.29.89,1.53,1.53,0,0,1,.85,1.07,1.78,1.78,0,0,1-.8,1.37"/><path class="cls-1" d="M129.62,136.06a1.76,1.76,0,0,0,1.12.42,1.66,1.66,0,0,0,.76-.2,4.81,4.81,0,0,0,2.68-2.37,1.78,1.78,0,0,0-.36-1.57,2.24,2.24,0,0,0-1.76-.87l-.32,0A3.6,3.6,0,0,1,129,130a2.83,2.83,0,0,0-1.16-.89,1.49,1.49,0,0,0-.39-.05.38.38,0,0,0-.17,0v.19a3.18,3.18,0,0,0,1.17,1.71,13.67,13.67,0,0,0,2.21,1.26c.46.29.66.57.64.87s-.28.6-.83.86a1.07,1.07,0,0,1-.41.1c-.41,0-.76-.27-1.1-.85a15.87,15.87,0,0,0-2.51-3l-.25-.1a.7.7,0,0,0-.28.09,1.88,1.88,0,0,0-.82.74.7.7,0,0,1-.55.36.92.92,0,0,1-.49-.19.75.75,0,0,0-.29.08,15.51,15.51,0,0,0-3.59,2.91,1.06,1.06,0,0,1-.65.32h0l-.23-.09-.06-.06,0-.08c-.1-.24,0-.58.37-.86a12,12,0,0,0,2.91-2.55.44.44,0,0,0,.07-.33.64.64,0,0,0-.31-.45,2.35,2.35,0,0,0-1.19-.27,5.1,5.1,0,0,0-1.32.22,5.54,5.54,0,0,1-1.24.15,7.61,7.61,0,0,1-2.11-.29,1.79,1.79,0,0,0-.56-.07,1.12,1.12,0,0,0-1,.54,5,5,0,0,0-.24.71,6.76,6.76,0,0,0,0,1.88,3.11,3.11,0,0,0,.26.61.49.49,0,0,0,.42.21,1.54,1.54,0,0,0,.72-.25,2,2,0,0,0,1-1.81.92.92,0,0,1,.61-.61,7.56,7.56,0,0,1,2.3-.48,3.23,3.23,0,0,1,.72.06c.31.06.48.19.53.39s-.19.45-.37.58a13.47,13.47,0,0,1-3.14,1.54c-.73.33-1,.93-.87,1.92,0,.49.52,1,1.47,1.75a1.73,1.73,0,0,0,.83.21,1.68,1.68,0,0,0,1.46-1.05c.07-.32.36-.6,1-.92a11.36,11.36,0,0,0,2.11-1.85A.8.8,0,0,1,124,133c.33,0,.41.33.5.66l.09.31c.19.35.39.5.6.5s.58-.22.93-.66a.77.77,0,0,1,.5-.26l.19,0,0,0c.14.14.14.37.09.74s0,.29.12.34a.6.6,0,0,1,.39-.14,1.32,1.32,0,0,1,.75.28Z"/><path class="cls-1" d="M116,124.37a.36.36,0,0,0-.35.54l2.47,3.35a1.61,1.61,0,0,0,1.18.63.68.68,0,0,0,.55-.26,1.13,1.13,0,0,0,.14-1c0-.26-.19-.37-.26-.37l-.15.18a.81.81,0,0,1-.53.3.69.69,0,0,1-.55-.31l-2.12-2.91a.42.42,0,0,0-.38-.14"/><path class="cls-1" d="M123.58,130a1.17,1.17,0,0,0,.48.09c.23,0,.56-.08.68-.78a5.07,5.07,0,0,0-.35-2.92l-2-4.41a1,1,0,0,0-.23-.34s-.11.06-.24.4a2.85,2.85,0,0,0,.51,2.2c.33.49.61,1.06.92,1.64l.38.74a1.65,1.65,0,0,1,0,1.43.67.67,0,0,1-.58.32,1,1,0,0,1-.73-.37l-1.94-2.83a3.44,3.44,0,0,0-1.76-1.72,1.28,1.28,0,0,0-.52-.11h-.07a1,1,0,0,0,.13.33,25,25,0,0,1,1.47,2.16l0,.06c1,1.63,2,3.16,3.76,4.11"/><path class="cls-1" d="M120.9,123.81l0,.29,1.49,2.61.11.05a.39.39,0,0,0,.33-.19.5.5,0,0,0-.11-.44l-1.47-2.29-.15-.08Z"/><path class="cls-1" d="M118.73,126.72l.11,0a.37.37,0,0,0,.29-.21c.09-.14,0-.29-.06-.39l-1.23-1.91-.15,0-.16.06,0,.28Z"/><path class="cls-1" d="M127,127.88a2.19,2.19,0,0,0,.58.1.36.36,0,0,0,.29-.1.53.53,0,0,0,.08-.41,18.88,18.88,0,0,0-1.21-5.06,4.64,4.64,0,0,1-.42-1.52.35.35,0,0,0-.13-.38l-.25.16a2,2,0,0,0-.09,1.82l1,2.58c.14.44.14.72,0,.92l-.16.12-.05,0h-.07a.73.73,0,0,1-.55-.37,6.21,6.21,0,0,1-.83-2.38c-.26-1-.56-1.17-.82-1.27l-.14,0-.16,0v.11c.54,2.2,1.26,4.64,2.94,5.66"/><path class="cls-1" d="M123,108.3a.81.81,0,0,0-.41.37.85.85,0,0,0-.11.77,15.94,15.94,0,0,1,1.85,8.17c0,.92-.55,1-.66,1a.92.92,0,0,1-.76-.48,30.91,30.91,0,0,1-1.82-3.73l0-.06c-.43-1-.91-2.12-1.4-3-.11-.15-.16-.17-.16-.17s-.11.06-.21.46a2.6,2.6,0,0,0,.3,1.71c.45.86.88,1.84,1.24,2.62l0,0c.85,1.9,1.65,3.68,2.52,4.4a1.38,1.38,0,0,0,.71.27c.31,0,.56-.21.79-.66,1.06-1.87-.14-8.65-1.67-11.48-.09-.19-.16-.19-.2-.19"/><path class="cls-1" d="M123.07,116.21c.1,0,.23-.1.25-.39a8,8,0,0,0-2.44-5.85.74.74,0,0,0-.31-.08.27.27,0,0,0-.24.13.55.55,0,0,0,.06.52,19.83,19.83,0,0,1,2.48,5.47.24.24,0,0,0,.2.2"/><path class="cls-1" d="M119.47,122.39a1.4,1.4,0,0,0,.6.15c.24,0,.84-.11,1-1,.17-2.56-.74-5.54-2.73-8.84a.44.44,0,0,0-.38-.18.67.67,0,0,0-.53.26.43.43,0,0,0-.08.4,23.71,23.71,0,0,0,1.17,2.84l.08.17a22.33,22.33,0,0,1,1.4,3.51,1.19,1.19,0,0,1-.07,1,.58.58,0,0,1-.42.22.93.93,0,0,1-.68-.34,21.4,21.4,0,0,1-2.88-4.06l-.14-.21a21.47,21.47,0,0,0-1.47-2.25.89.89,0,0,0-.57-.39l-.21.12a1,1,0,0,0,0,.83,26,26,0,0,0,5.88,7.75"/><path class="cls-1" d="M114.28,112.22l-.18,0,.09.23a26.88,26.88,0,0,1,3.83,6l.2.16.09,0a.84.84,0,0,0,0-.52c-.86-2.81-2.2-4.79-3.94-5.87Z"/><path class="cls-1" d="M115.41,123.16c.57,0,.92-.5.92-1.32-.15-2.58-2.18-4.8-4.14-7a.8.8,0,0,0-.45-.19l-.16.11.07.16a35.25,35.25,0,0,1,3.74,5.23,1.34,1.34,0,0,1,0,1.26.71.71,0,0,1-.6.33,1,1,0,0,1-.74-.35,61.27,61.27,0,0,0-5.86-7,.55.55,0,0,0-.36-.17l-.2.15c-.06.11,0,.25.15.39a97,97,0,0,1,6.31,7.72,1.88,1.88,0,0,0,1.28.66"/><path class="cls-1" d="M109.18,113.44l-.12,0a.89.89,0,0,0,.08.69L114,120l.27.14.09,0a.66.66,0,0,0-.16-.4l-4.86-6.19Z"/><path class="cls-1" d="M128.68,67.62a6.69,6.69,0,0,0,2.87,1.5.36.36,0,0,0,.29-.12,1.14,1.14,0,0,0,.35-1,1.69,1.69,0,0,0-1.08-1.11h0a1.09,1.09,0,0,1-.22.71.93.93,0,0,1-.59.25.92.92,0,0,1-.93-.79,2.17,2.17,0,0,0-1-1.41h0v0a1.79,1.79,0,0,1,.21,1.31.61.61,0,0,0,.11.65"/><path class="cls-1" d="M122.47,71.2a2.46,2.46,0,0,1-.67-.09h-.11a.56.56,0,0,0,.1.24,3.16,3.16,0,0,0,2,.83,1,1,0,0,0,.88-.42c.25-.44.06-1.22-.47-2.15l-.09-.18,0,0v-.06c0-.1,0-.31-.87-1l0,0c-.06.21-.28.35-.64.42a5.18,5.18,0,0,1-.75.07c-.28,0-.61,0-1,0l-.15.08a.65.65,0,0,0,.51.46c1.81,0,2.45.62,2.45,1.15s-.49.81-1.14.82"/><path class="cls-1" d="M123.22,74.21c1.35.42,1.72,1.32,1.63,2a1,1,0,0,1-.91.93,1.62,1.62,0,0,1-1-.47,1.06,1.06,0,0,0,.09.61A3.16,3.16,0,0,0,125.5,79a.84.84,0,0,0,.73-.34,1.46,1.46,0,0,0,0-1.39,7.59,7.59,0,0,1-.83-3.71c0-.25-.06-.33-.13-.39a1.3,1.3,0,0,0-.41.19,2,2,0,0,1-.83.19,3.36,3.36,0,0,1-1.51-.45l-.18.16a.28.28,0,0,0,0,.29Z"/><path class="cls-1" d="M118.48,95.16a1,1,0,0,0,0,.85,43.75,43.75,0,0,1,2.53,4l.13.19c.66,1.12,1.2,2,1.61,2.64a.79.79,0,0,0,.49.32c.19,0,.35-.32.36-.74-.11-2.6-1.46-5.73-4.15-9.59l-.08.13a.68.68,0,0,0,0,.69A21.3,21.3,0,0,1,122.17,99a.75.75,0,0,1,0,.7l-.14.11-.06,0h-.06c-.2,0-.39-.16-.53-.44a22.49,22.49,0,0,0-2.53-4.16l-.21-.15Z"/><path class="cls-1" d="M115.91,100.26a.29.29,0,0,0-.25.16,1,1,0,0,0,0,.86A64.28,64.28,0,0,0,119,107.7a2,2,0,0,0,1.58,1,1.63,1.63,0,0,0,1.32-.83,4.23,4.23,0,0,0,0-3.91,38.87,38.87,0,0,0-4.1-6.94.47.47,0,0,0-.32-.16.29.29,0,0,0-.25.15.86.86,0,0,0,0,.79,36.85,36.85,0,0,1,3.9,7,2,2,0,0,1,0,1.9,1,1,0,0,1-.82.48,1.16,1.16,0,0,1-.94-.56,42.34,42.34,0,0,1-3.25-6.1.48.48,0,0,0-.35-.22"/><path class="cls-1" d="M119.79,104.89a.55.55,0,0,0,.43-.25.67.67,0,0,0-.06-.65l-3-5.21c-.09-.2-.17-.25-.18-.25s-.08,0-.14.14a1.48,1.48,0,0,0-.12,1.18l2.79,4.94a.26.26,0,0,0,.24.1"/><path class="cls-1" d="M116.49,111.9a2,2,0,0,0,1.71-1A3,3,0,0,0,118,108a38.08,38.08,0,0,1-3-6.19c-.12-.33-.32-.52-.55-.52a.6.6,0,0,0-.45.31.43.43,0,0,0,0,.46,55.2,55.2,0,0,0,3.12,6.49,1.62,1.62,0,0,1,.14,1.65,1,1,0,0,1-.87.5,1.45,1.45,0,0,1-1.16-.63,26.16,26.16,0,0,1-2.47-3.68l-.21-.35c-.5-.81-1-1.67-1.5-2.38a.57.57,0,0,0-.45-.23.56.56,0,0,0-.49.34.47.47,0,0,0,.14.54l4.21,6.5a2.33,2.33,0,0,0,1.94,1.12"/><path class="cls-1" d="M112.19,102.85l3.09,5.57a.75.75,0,0,0,.55.36l.18-.08s.15-.29-.16-.94l-3.33-6.17c-.07-.13-.13-.17-.22-.17l-.13,0,0,.28a.7.7,0,0,1,0,.46.57.57,0,0,0,.1.67"/><path class="cls-1" d="M112.86,113.37a2.32,2.32,0,0,0,.14-1.91,27.13,27.13,0,0,0-3.65-6.6l-.28-.4a.86.86,0,0,0-.73-.31c-.22,0-.34.06-.36.1s0,.11.13.26A39.79,39.79,0,0,1,112,111a1,1,0,0,1,0,1.08.8.8,0,0,1-.69.45.94.94,0,0,1-.7-.37,63.05,63.05,0,0,1-5.5-6.9.57.57,0,0,0-.44-.18.48.48,0,0,0-.42.22.59.59,0,0,0,.07.55,48,48,0,0,0,5.82,7.35,2.24,2.24,0,0,0,1.63.65,1.33,1.33,0,0,0,1.09-.46"/><path class="cls-1" d="M105.76,104.11a17.26,17.26,0,0,0,4.37,6.2.62.62,0,0,0,.24.12l.11-.07a.53.53,0,0,0-.08-.49,73.82,73.82,0,0,0-4.37-6.14h-.23a.64.64,0,0,0,0,.38"/><path class="cls-1" d="M107.4,113.38a.54.54,0,0,0,.43-.14c0-.08.09-.26-.1-.72a33.94,33.94,0,0,0-5.13-6.94.65.65,0,0,0-.49-.25l-.14.06s0,.14.08.27c1.12,1.43,2.4,3.09,3.4,4.59a.69.69,0,0,1,.14.67l0,0-.16.15-.06,0h-.07a.87.87,0,0,1-.52-.23,82.08,82.08,0,0,1-5.31-6.81.4.4,0,0,0-.37-.2.57.57,0,0,0-.49.3.48.48,0,0,0,0,.49l.33.48c2.15,3.2,4.84,7.18,8.18,8.22Z"/><path class="cls-1" d="M114.48,88.23a2.23,2.23,0,0,0-.36.61c-.15.77-.06,1,0,1h.05a.72.72,0,0,0,.27-.08,3.86,3.86,0,0,0,1.51-3l-.31-5.1c-.07-.3-.21-.49-.36-.49l-.26.12a.92.92,0,0,0-.17.64l0,1.14c0,.57,0,1.15.05,1.72s0,1.11,0,1.65a2.07,2.07,0,0,1-.47,1.8Z"/><path class="cls-1" d="M110.57,83.56a.43.43,0,0,0-.32.28,16.24,16.24,0,0,0-.84,6.39,1.43,1.43,0,0,0,1.46,1.23,3,3,0,0,0,2.56-2.2,24.08,24.08,0,0,0,.35-6.81c0-.4-.17-.65-.35-.65l-.25.13a.73.73,0,0,0-.18.53c.12,2.22.16,4.71-.47,6.28-.53.87-1,1.36-1.5,1.37-.23,0-.63-.12-.71-1a23.31,23.31,0,0,1,.48-5.2c0-.14,0-.24-.23-.37"/><path class="cls-1" d="M111.81,88.25a14,14,0,0,0,.24-5.44c-.06-.24-.15-.36-.19-.36s-.21.15-.26.41l-.24,5.46c0,.19.14.2.2.2s.2-.07.25-.27"/><path class="cls-1" d="M104.82,91.37a.84.84,0,0,1-.73-.34,1.44,1.44,0,0,1,.07-1.29l1.13-4a.44.44,0,0,0-.08-.36l-.2-.09c-.16,0-.32.16-.44.4a26.85,26.85,0,0,1-1,2.81c-.28.69-.52,1.31-.8,2.17a1.52,1.52,0,0,0-.11,1,2.43,2.43,0,0,0,2.07.74h.12c2-.26,3.08-1,3.21-2.26l.79-5.32a.72.72,0,0,0-.18-.53l-.24-.11c-.16,0-.39.16-.5.6l-.68,4c-.28,1.68-1.1,2.51-2.45,2.54"/><path class="cls-1" d="M106.76,84.53a.52.52,0,0,0-.41.39,33.6,33.6,0,0,1-.79,4.42.42.42,0,0,0,0,.32l.17.08c.19,0,.4-.22.53-.54a32.81,32.81,0,0,0,.61-4.39c0-.28-.11-.28-.15-.28"/><path class="cls-1" d="M99,91.52a2.88,2.88,0,0,0,1.2.28A2,2,0,0,0,102,90.62l1.51-4.28c.06-.35,0-.48-.13-.56a.37.37,0,0,0-.16.22,27.77,27.77,0,0,1-2,4.26,1.25,1.25,0,0,1-1,.57.85.85,0,0,1-.75-.38,1.09,1.09,0,0,1,.06-1.07,24.52,24.52,0,0,0,1.64-3.79.35.35,0,0,0-.13-.44.4.4,0,0,0-.27.28,28.46,28.46,0,0,1-2.1,4.11,1.78,1.78,0,0,0-.3,1.29,1.18,1.18,0,0,0,.66.69"/><path class="cls-1" d="M101.78,85.81a16.06,16.06,0,0,1-1.46,3.46.42.42,0,0,0,0,.42l.12,0a.43.43,0,0,0,.32-.2,9.48,9.48,0,0,0,1.5-3.5.46.46,0,0,0-.24-.48.3.3,0,0,0-.23.25"/><path class="cls-1" d="M99.36,85.64a.24.24,0,0,0-.17.17,19.5,19.5,0,0,1-1.65,2.79.41.41,0,0,0-.06.36l.14.05.18,0a7.71,7.71,0,0,0,1.72-3,.36.36,0,0,0-.16-.34"/><path class="cls-1" d="M95.52,89.81a2,2,0,0,0,1.38.9.64.64,0,0,0,.5-.28l-.05-.23-.68-.52a.68.68,0,0,1-.28-.37,1.14,1.14,0,0,1,.27-.77,10.89,10.89,0,0,0,1.53-2.09.64.64,0,0,0,.09-.62l-.09-.06c-.1,0-.2.09-.28.24a27.81,27.81,0,0,1-2.15,2.74c-.35.43-.41.73-.24,1.06"/><path class="cls-1" d="M95.16,91.5a6.54,6.54,0,0,0-1.38,5.33,13.18,13.18,0,0,0,.94,2.46c.2.44.45,1,.66,1.56a6,6,0,0,1,.39,2.35c0,.11,0,.37.62.37a4.69,4.69,0,0,0,.84-.15,2.07,2.07,0,0,0,1.31-1,1.56,1.56,0,0,0,0-1.22c-1.76-4-1.86-6.45-.31-8.55a.55.55,0,0,0,0-.53.45.45,0,0,0-.38-.21.65.65,0,0,0-.47.25,4.36,4.36,0,0,0-1.26,3.44,9.44,9.44,0,0,0,.58,2.7c.19.64.41,1.35.57,2.12a.69.69,0,0,1-.09.69.41.41,0,0,1-.37.22c-.15,0-.45-.07-.67-.66s-.44-1.35-.63-1.86v0A10.17,10.17,0,0,1,94.77,96c-.12-1.64.27-2.34,1.23-4l0,0c.13-.22.17-.4.1-.53a.45.45,0,0,0-.45-.21.61.61,0,0,0-.51.28"/><path class="cls-1" d="M98.69,99a11.55,11.55,0,0,0,2.33,4.9,2.5,2.5,0,0,0,1.67.6,2,2,0,0,0,2.08-1.59,2.75,2.75,0,0,0-.23-1.41,5.52,5.52,0,0,1-.18-.53,12.58,12.58,0,0,1-.09-6.78.44.44,0,0,0,0-.4.53.53,0,0,0-.42-.17.66.66,0,0,0-.58.32,12,12,0,0,0,0,7.37,1.4,1.4,0,0,1-.19,1.22,1,1,0,0,1-.77.4,1.2,1.2,0,0,1-1-.54c-2.1-3.38-2.47-6.32-1.12-9a.68.68,0,0,0,0-.69.44.44,0,0,0-.37-.2.71.71,0,0,0-.54.36c-1.26,2.07-1,4-.58,6.11"/><path class="cls-1" d="M102.24,92.84a.44.44,0,0,0-.33-.16.57.57,0,0,0-.5.36,9.13,9.13,0,0,0,.32,7.76.35.35,0,0,0,.29.17l.12-.07s.11-.18,0-.59c-.83-3.4-.78-5.65.13-7a.4.4,0,0,0,0-.45"/><path class="cls-1" d="M106.29,93.55a.44.44,0,0,0-.29-.1.55.55,0,0,0-.53.44,13.3,13.3,0,0,0,0,7,2.77,2.77,0,0,0,2.78,2.13,2.35,2.35,0,0,0,2.37-2.26,28.19,28.19,0,0,1-.34-7.7.53.53,0,0,0-.14-.43.69.69,0,0,0-.47-.2.39.39,0,0,0-.39.33,19.52,19.52,0,0,0-.34,6.12c0,.14,0,.3.06.49a2,2,0,0,1-.16,1.62,1,1,0,0,1-.77.39,1.55,1.55,0,0,1-1.23-.81,11.49,11.49,0,0,1-.4-6.67.59.59,0,0,0-.15-.4"/><path class="cls-1" d="M108,93l-.17-.07a.4.4,0,0,0-.34.34,19.7,19.7,0,0,0-.26,6.14.44.44,0,0,0,.46.37c.2,0,.43-.15.47-.53a27,27,0,0,1-.09-6Z"/><path class="cls-1" d="M113.82,91.08a1.88,1.88,0,0,0-.09,1.2,12.92,12.92,0,0,1,.83,5.42,1.22,1.22,0,0,1-1.12,1,1.06,1.06,0,0,1-1-.74,18.1,18.1,0,0,1-.5-5.13.52.52,0,0,0-.53-.45.43.43,0,0,0-.33.15A.44.44,0,0,0,111,93c0,2.3,0,4.9,1.13,7a1.52,1.52,0,0,0,1.21.59c.86,0,1.75-.81,2.37-2.15.53-1.84,0-4.12-1.51-7.18l-.24-.14Z"/><path class="cls-1" d="M113.47,96.87c.1,0,.19-.25.19-.41a39.84,39.84,0,0,1-.6-4.23c-.09-.33-.22-.43-.29-.42s-.17.11-.17.29a18.11,18.11,0,0,0,.63,4.66Z"/><path class="cls-1" d="M116.9,88.67s-.07.09-.09.32a3.79,3.79,0,0,0,.38,1.58l0,.05a3.92,3.92,0,0,1,.41,1.74c-.09.47-.41.53-.54.53a.78.78,0,0,1-.31-.06c-.5,0-.81-1-.89-1.42,0-.18.26-.45.34-.33s.26.35.34.3c.3,0-.24-1.3-.24-1.3a.55.55,0,0,0-.45-.14,1,1,0,0,0-.57.24c-.26.11-.41.28-.26.76a7.9,7.9,0,0,0,1.71,3.66.63.63,0,0,0,.36.14,1,1,0,0,0,.64-.41,4.87,4.87,0,0,0-.67-5.52.51.51,0,0,0-.2-.14"/><path class="cls-1" d="M119.12,87.78l-.24,0a.26.26,0,0,0-.25.11c0,.06,0,.14.05.26a4,4,0,0,0,.55.71c.49.56,1.1,1.25.37,2-.2.14-.21.2,0,.46a.62.62,0,0,0,.55.36,1.24,1.24,0,0,0,.57-.19l1-1.21.1-.28s0-.06-.17-.06c-.6,0-1-.6-1.4-1.1a2.94,2.94,0,0,0-1.06-1"/><path class="cls-1" d="M121.93,87.64a.63.63,0,0,1-.42-.14l-1.16-.89-.24-.06a.37.37,0,0,0-.32.23.37.37,0,0,0,0,.37,10,10,0,0,0,1.74,1.76,1,1,0,0,0,.59.25.81.81,0,0,0,.49-.2,10.24,10.24,0,0,1,.94-1,4.21,4.21,0,0,0,1.25-1.65c0-.3,0-.41,0-.43s-.09-.06-.35-.06a4,4,0,0,1-2.38-1.28l-.21-.08a.47.47,0,0,0-.4.26.35.35,0,0,0,0,.37l1.15,1.22a.87.87,0,0,1,0,.88.9.9,0,0,1-.72.47"/><path class="cls-1" d="M124.41,83.06a1.13,1.13,0,0,1-.8-.41c-.08-.11-.15-.17-.21-.17s-.1,0-.25.17c-.57.51-.45.85-.28,1.08a2.94,2.94,0,0,0,1.86,1.12,1.41,1.41,0,0,0,1.08-.76,8.22,8.22,0,0,0,.72-2.82.62.62,0,0,0-.07-.46,1.66,1.66,0,0,0-.4-.18l-.08,0-.21-.08a12.74,12.74,0,0,1-2.2-1.39l0,.11c-.11.46-.06.74.18.92l1.1.9a1.43,1.43,0,0,1,.27,1.5.75.75,0,0,1-.67.5"/><path class="cls-1" d="M146.25,136.51a1.19,1.19,0,0,0-.07-1.09c0-.25-.19-.32-.74-.38s-1.55-.2-1.58-1.5l0-.4v-.07l-.22.08a2.22,2.22,0,0,0-1.39,1.32,3.93,3.93,0,0,1-.4.71,1.8,1.8,0,0,1-1.15.54c-.45,0-.84-.28-1.19-.88a2,2,0,0,0-.09-.34,2.55,2.55,0,0,0-.29.37,1.87,1.87,0,0,0-.26,1.35,3.61,3.61,0,0,1-.48,2.32c-1,1.73-2.14,2.62-3.42,2.64a3.34,3.34,0,0,1-1-.12l-.18,0a.51.51,0,0,0-.45.43.48.48,0,0,0,.07.47,5.47,5.47,0,0,0,1.76.32,4.34,4.34,0,0,0,3.33-1.87c1.43-2,3.19-4.52,5.2-4.56a2.51,2.51,0,0,1,1.26.32l.05,0a1.07,1.07,0,0,0,.8.55.45.45,0,0,0,.37-.21"/><path class="cls-1" d="M151.05,142.61a1.27,1.27,0,0,1-1.19-.44,1.37,1.37,0,0,1,.1-1.34l.06-.17h-.48c-1,.17-1.27.53-1.32,1.11a.86.86,0,0,1-.59,1.05,17.39,17.39,0,0,1-7.25,1.94,19.42,19.42,0,0,1-5.59-.92c-1.07-.3-2-.54-2.93-.73-.63,0-1.08.22-1.15.48a.41.41,0,0,0,.18.41l2.16.76c.3.06,1.19.25,1.26,1.12.27,1,.72,1.49,1.36,1.48l.25,0,.12,0,0,0,0,0,0,0a1.17,1.17,0,0,1-.08-1,.49.49,0,0,1,.46-.38,1.48,1.48,0,0,1,.45.09,18.86,18.86,0,0,0,3.86.35,16.83,16.83,0,0,0,2.43-.2l.3,0a.66.66,0,0,1,.58.25,3.64,3.64,0,0,0,2,.84,1.44,1.44,0,0,0,.94-.37h0a1.34,1.34,0,0,1-.91-.93c-.08-.51,0-.63.51-.76a5.79,5.79,0,0,0,2.29-1.1,1,1,0,0,1,.84-.32h.07c1.46,0,1.77-.47,1.88-.77v-.16l0-.18-.19,0-.43,0"/><path class="cls-1" d="M151.39,137.34a3.19,3.19,0,0,1-2.51,1.33,2.61,2.61,0,0,1-1.07-.2,1,1,0,0,1-.43-.79c0-.53.39-1.15,1.24-1.89a2.32,2.32,0,0,1,1.45-.59,1.45,1.45,0,0,1,1.24.6,1.58,1.58,0,0,1,.08,1.54m-1.51-3a2.46,2.46,0,0,0-1.54.56c-2.11,1.76-2.56,3.11-1.51,4.5a3.68,3.68,0,0,0,2,.57,5.49,5.49,0,0,0,3.43-1.6,2.41,2.41,0,0,0,.08-2.55,2.78,2.78,0,0,0-2.44-1.48"/><path class="cls-1" d="M156.19,136.59c-.06-.45-.25-.48-.42-.47l-.23,0a6.07,6.07,0,0,0-1.32.39.42.42,0,0,0-.35.4.52.52,0,0,0,.26.53,7.51,7.51,0,0,0,1.64.43h.17a.31.31,0,0,0,.23-.07.4.4,0,0,0,.06-.33,2.17,2.17,0,0,1,0-.91"/><path class="cls-1" d="M155.43,134.47a7,7,0,0,1-.8-1c-.15-.16-.25-.24-.31-.24s-.17.08-.36.24a3.1,3.1,0,0,0-.93,1.13.85.85,0,0,0,.06.73.82.82,0,0,0,.62.28,3.34,3.34,0,0,0,1.65-.73c.18-.19.19-.26.07-.42"/><path class="cls-1" d="M152.57,131.84a.72.72,0,0,0-.44-.22s-.16,0-.31.27a3.21,3.21,0,0,0-.42.94,1,1,0,0,0,.11.77.61.61,0,0,0,.51.15,1.62,1.62,0,0,0,.34,0,2.37,2.37,0,0,0,1.12-.81l.07-.2c0-.08-.09-.19-.22-.3a4,4,0,0,1-.76-.58"/><path class="cls-1" d="M157.51,130.85a.74.74,0,0,0-.78.55c0,.61-.32,1-1,1.32-.25.14-.15.51-.15.52.09.3.35.63.64.62l.23-.08a1.51,1.51,0,0,1,1.29-.63,3,3,0,0,1,.62,0,.65.65,0,0,0,.6-.45,1.3,1.3,0,0,0-.38-1.38,1.4,1.4,0,0,0-1-.52"/><path class="cls-1" d="M102.6,141.6c.05.35-.23.63-.83.86l.17.08a2.54,2.54,0,0,0,.58.07A2.68,2.68,0,0,0,104,142a3,3,0,0,1,1.67-.64,3.82,3.82,0,0,1,1.35.29c.53.22.8.46.86.76a.74.74,0,0,1-.26.65l0,0h0l.4,0c.83,0,1.4-.48,1.79-1.48a2.72,2.72,0,0,1,1.72-1.15,2.12,2.12,0,0,0,.58-1.36.4.4,0,0,0-.19-.47.61.61,0,0,0-.26.09,10.29,10.29,0,0,1-4.91,1.29c-3,0-6.1-1-9.87-2.5a1.92,1.92,0,0,1-1.12-2.27L97,131.43a3.1,3.1,0,0,1,2.91-1.82c2,0,4.89,1.22,8.78,3.84l.19.11.07-.09a1,1,0,0,0-.15-.94l-1.42-1.14a1.56,1.56,0,0,1-.58-1.26c-.13-1.26-.65-1.61-1.19-1.81l-.14,0a.64.64,0,0,0,0,.2l-.11,1a.57.57,0,0,1-.56.39h-.33a4.48,4.48,0,0,1-3.54-2c-.49-.64-.82-1.09-1.63-1.08a2.53,2.53,0,0,0-.38,0h0l.42.35a.9.9,0,0,1,.28.8c-.07.3-.34.51-.84.66a2,2,0,0,0-.81.15,1.51,1.51,0,0,1-.57.15,1.87,1.87,0,0,1-.91-.31l0,0a2.11,2.11,0,0,0-1.13-.36,2,2,0,0,0-.58.1h0l.1,0a1.86,1.86,0,0,1,.82,2.38L94,135.42a3.28,3.28,0,0,0,.9,3.25c1.1.41,1.63.81,1.66,1.25s-.23.63-.76.91l0,0a2.19,2.19,0,0,0,.91.21,2,2,0,0,0,1.31-.59,1.85,1.85,0,0,1,1.17-.44,2.17,2.17,0,0,1,.76.13c1.74.46,2.55.91,2.59,1.44"/><path class="cls-1" d="M94.1,131.74a.36.36,0,0,0,.28-.18.45.45,0,0,0,0-.42,6,6,0,0,0-2.25-2.24l-.29-.07a.29.29,0,0,0-.28.19.41.41,0,0,0,.1.44,9,9,0,0,1,2.23,2.2Z"/><path class="cls-1" d="M79,131.72c0,1.1,0,2.15-1,2.31h0l.06,0a2.66,2.66,0,0,0,1.25.37,1.88,1.88,0,0,0,.91-.27.71.71,0,0,1,.5-.22.56.56,0,0,1,.36.1l3.08,1.47c.42.18.62.38.64.64s-.13.47-.53.75a2.39,2.39,0,0,0,.9.17,2.22,2.22,0,0,0,1.35-.52.91.91,0,0,1,.62-.24l.31,0c.51,0,1,0,1.58,0a15.47,15.47,0,0,0,3.76-.47,1,1,0,0,0,.43-1.05.37.37,0,0,0-.37-.27l-.23,0a12.89,12.89,0,0,1-3.44.57,14,14,0,0,1-7.91-2.6c-.59-.22-.8-.87-.61-2a11.73,11.73,0,0,1,1.91-3.84.85.85,0,0,1,.74-.45h0a4.39,4.39,0,0,0,.86.07c1,0,1.09-.41,1.09-.73,0-.12,0-.13,0-.13l-.11,0-.3,0a2.65,2.65,0,0,1-1.82-.87,1.74,1.74,0,0,0-1.09-.61l-.17,0a1.25,1.25,0,0,1,.34.81,1.29,1.29,0,0,1-.47.92,8.88,8.88,0,0,0-2.6,5.85"/><path class="cls-1" d="M87.08,129.14v0a3.5,3.5,0,0,1,.12-3.13,1.37,1.37,0,0,1,1-.52,1.28,1.28,0,0,1,1,.5,2.18,2.18,0,0,1,.18,1.89c-.32,1.15-.77,1.71-1.4,1.72a1.56,1.56,0,0,1-1-.42m3.68-.91a3.07,3.07,0,0,0-.46-2.67,2.56,2.56,0,0,0-2-.91,2,2,0,0,0-1.47.58,3.29,3.29,0,0,0-.72,2.55,4.13,4.13,0,0,0,1.27,2.89,3,3,0,0,0,.93.15c1.1,0,1.94-.89,2.49-2.59"/><path class="cls-1" d="M91.71,124.9a2.4,2.4,0,0,0,1.26-.65.51.51,0,0,0-.19-.74L92,123l-.23-.06c-.15,0-.29.13-.44.37a1.69,1.69,0,0,0-.36,1.12c.09.36.27.52.58.52Z"/><path class="cls-1" d="M90.41,122.12l-.93-.32-.23,0-.19,0s-.09.14-.06.42l.06,1.24a.53.53,0,0,0,.47.35,1.08,1.08,0,0,0,.56-.21,8.23,8.23,0,0,0,.59-.71.75.75,0,0,0,.13-.55c0-.11-.19-.19-.4-.25"/><path class="cls-1" d="M87.75,121.89a5.06,5.06,0,0,1-1,.11c-.16,0-.25,0-.3.11s-.08.2,0,.69.63,1.18,1,1.18q.25,0,.48-.42a1.13,1.13,0,0,0,.12-.56l0-.59c0-.37-.06-.48-.24-.57Z"/><path class="cls-1" d="M74.79,129.92a.71.71,0,0,1,.35.07,7.65,7.65,0,0,0,2.12.37,3.14,3.14,0,0,0,.73-.1.45.45,0,0,0,.3-.44.42.42,0,0,0-.43-.29,11.74,11.74,0,0,1-8.63-5.7,2.15,2.15,0,0,1,.11-2.37,7.2,7.2,0,0,1,3-2.48,2.44,2.44,0,0,1,1.16-.34,1.81,1.81,0,0,1,1.28.49,15.16,15.16,0,0,1,4.28,6.8c0,.46.25.67.44.67s.39-.18.47-.55l-.28-1.34a1.25,1.25,0,0,1,.09-1.1c.89-1.19.94-2.1.16-2.85v0c-.3.81-.61,1.18-1,1.2s-.6-.24-.88-.74a11.43,11.43,0,0,0-2.91-3.08c-.47-.28-.68-.61-.56-.94-.22-1.38-.68-1.48-1.31-1.59h-.13l0,.06c.33,1-.12,1.76-1.34,2.16a7.58,7.58,0,0,0-4.33,3.9c-.19.56-.53.68-.79.69a1.65,1.65,0,0,1-1-.45h0v.19c.08,1,.46,1.54,1.16,1.75a.89.89,0,0,1,.92.67A4.8,4.8,0,0,0,68.91,126c.3.27.43.5.36.72s-.41.42-1.1.49l.07.09a2.26,2.26,0,0,0,1.79.64l.32,0a.94.94,0,0,1,.67.27l1.32.8c.35.19.51.39.51.63s-.23.53-.77.83h0l.08,0a2.08,2.08,0,0,0,1,.34,1.49,1.49,0,0,0,1.09-.57.63.63,0,0,1,.55-.32"/><path class="cls-1" d="M67.71,113.36c.3,0,1,.1,1.47,1.28s.48,1.81.22,2.22a.91.91,0,0,1-.8.37h-.24a3.18,3.18,0,0,1-1.85-2.58,1.27,1.27,0,0,1,1.2-1.28m-1.83.34a2.83,2.83,0,0,0,.19,2.32,4.33,4.33,0,0,0,2.81,2.24l.29,0a1.59,1.59,0,0,0,1.42-.9,3.62,3.62,0,0,0-.46-3.49,3,3,0,0,0-2.33-1.5,2.33,2.33,0,0,0-1.92,1.31"/><path class="cls-1" d="M68.14,111.67a.91.91,0,0,0,.61-.39,3.61,3.61,0,0,0,.32-1.17c0-.35-.09-.46-.32-.56a2.23,2.23,0,0,0-.72-.13,2.07,2.07,0,0,0-.53.08c-.2.07-.28.31-.23.71.11.86.46,1.47.87,1.46"/><path class="cls-1" d="M66.57,111.89a2.14,2.14,0,0,0,.1-1.66.49.49,0,0,0-.08-.31.71.71,0,0,0-.45-.13,1.48,1.48,0,0,0-1.22.64.46.46,0,0,0,.11.5c.47.83,1,1.12,1.25,1.11a.35.35,0,0,0,.29-.15"/><path class="cls-1" d="M64.23,111.2c-.36,0-.89.6-1,1,0,.19,0,.26.09.32a2.05,2.05,0,0,0,1.37.65.54.54,0,0,0,.51-.27c.15-.35-.14-.94-.76-1.6Z"/><path class="cls-1" d="M63.87,108.18a.75.75,0,0,1,.66.78c.12.29.29.43.52.42a.51.51,0,0,0,.47-.32.71.71,0,0,0-.15-.78.79.79,0,0,1,0-.88,1.19,1.19,0,0,0-.18-1,1,1,0,0,0-.74-.27,1.49,1.49,0,0,0-1.4.86c-.12.5.39.91.79,1.16"/><path class="cls-1" d="M92,140.83a1.14,1.14,0,0,1-.71.25,1.08,1.08,0,0,1-1-.59,1.28,1.28,0,0,1,.23-1.38,1,1,0,0,1,.66-.26,1.18,1.18,0,0,1,1.06.67,1.2,1.2,0,0,1-.23,1.31m1.22,0a2,2,0,0,0-.47-2.21,2,2,0,0,0-1.57-.72,2.06,2.06,0,0,0-1.78,1,2.32,2.32,0,0,0,.33,2.43,2.12,2.12,0,0,0,1.6.79,2.17,2.17,0,0,0,1.89-1.33"/><path class="cls-1" d="M82.07,148.27a1.11,1.11,0,0,1-.69.26,1.1,1.1,0,0,1-1-.59,1.28,1.28,0,0,1,.23-1.38,1,1,0,0,1,.66-.28,1.18,1.18,0,0,1,.8,2m-.81-2.92a2,2,0,0,0-1.73,1,2.35,2.35,0,0,0,.3,2.43,2,2,0,0,0,1.58.79h0a2.11,2.11,0,0,0,1.85-1.3,2,2,0,0,0-.46-2.21,1.92,1.92,0,0,0-1.55-.73"/><path class="cls-1" d="M136.08,156.73a1.1,1.1,0,0,1-.73.27,1.24,1.24,0,0,1-1.12-.67,1.27,1.27,0,0,1,.23-1.42,1.06,1.06,0,0,1,.69-.26,1.31,1.31,0,0,1,1.18.76,1.2,1.2,0,0,1-.25,1.32m-1-3.1a2.22,2.22,0,0,0-1.92,1.09,2.45,2.45,0,0,0,.43,2.55,2.36,2.36,0,0,0,1.8.86,2.27,2.27,0,0,0,2-1.39,2.12,2.12,0,0,0-.57-2.32,2.32,2.32,0,0,0-1.77-.79"/><path class="cls-1" d="M97.78,146.74a13.24,13.24,0,0,1-4.31-3.9c-.15-.24-.32-.37-.47-.37a.34.34,0,0,0-.29.17.73.73,0,0,0-.06.66,8.34,8.34,0,0,0,5.08,4.07c.2,0,.33-.06.35-.16s-.08-.32-.3-.47"/><path class="cls-1" d="M97.51,155a19.27,19.27,0,0,0-4.17-.71.34.34,0,0,0-.31.29.42.42,0,0,0,.34.44,17.39,17.39,0,0,1,4.2,1.52l.19.05s.08,0,.1-.25l0-.91c-.09-.28-.11-.29-.39-.43"/><path class="cls-1" d="M90,152.84a4.76,4.76,0,0,0-2.88,1.34c-.12.19-.16.34-.12.43a.45.45,0,0,0,.39.12,2.06,2.06,0,0,0,.84-.22,3.41,3.41,0,0,1,2-.88l.29,0c.6.07.79.41.77.71a.63.63,0,0,1-.57.6.58.58,0,0,1-.36-.14.46.46,0,0,0-.4-.17,1.39,1.39,0,0,0-.32,0,5.24,5.24,0,0,0-1.37.6l-.13.08a2,2,0,0,1-.33.16c-.12.08-.16.12-.16.13s0,.06.16.18a7.17,7.17,0,0,0,2.16.39,2.07,2.07,0,0,0,1.84-.87,1.66,1.66,0,0,0-.07-1.61,2,2,0,0,0-1.79-.92"/><path class="cls-1" d="M74.33,136.52c-.15,0-.38.13-.38.28s.47.59,1.28.76a4,4,0,0,1,2.73.87c.48.43.4.79.35.91a.68.68,0,0,1-.62.41.58.58,0,0,1-.59-.45c0-.24-.17-.43-.64-.61a6.21,6.21,0,0,0-1.67-.44,5,5,0,0,1-.62-.1h-.11l-.13,0a.68.68,0,0,0,0,.22c1.66,2.15,3,2.45,3.58,2.45a1.46,1.46,0,0,0,1.31-.76,1.88,1.88,0,0,0-.09-1.86c-.67-1.13-2.26-1.72-4.45-1.69"/><path class="cls-1" d="M143,148.66a8.18,8.18,0,0,0-3.22-.73,3.15,3.15,0,0,0-2.11.71,1.88,1.88,0,0,0,1.63,3.27,6.85,6.85,0,0,0,3.39-1.17.66.66,0,0,0,.19-.26s-.07-.09-.3-.14a3.78,3.78,0,0,1-.67-.13,6.81,6.81,0,0,0-2-.23c-.47,0-.68.1-.83.38a.57.57,0,0,1-.47.25.8.8,0,0,1-.75-.6c0-.13,0-.59.67-.87a3.35,3.35,0,0,1,1.08-.19,5.3,5.3,0,0,1,2,.41,4.44,4.44,0,0,0,.71.06c.62,0,.9-.2.94-.32s-.09-.29-.29-.44"/><path class="cls-1" d="M131.62,150.72a8.13,8.13,0,0,0,4-.87c.17-.11.36-.26.3-.47a.62.62,0,0,0-.62-.36.86.86,0,0,0-.39.11,18.07,18.07,0,0,1-4.1.58,24.67,24.67,0,0,1-2.7-.13c-.38,0-.59.22-.61.41s.22.49.85.58c1.29.11,2.36.15,3.29.15"/><path class="cls-1" d="M131.81,153.85a.47.47,0,0,1-.19-.49c0-.22.27-.37.72-.49l3.66-1.11a.31.31,0,0,0,.21-.36c0-.15-.14-.47-.77-.46h0c-3.47.59-5.32,1.34-5.5,2.23-.11.52.4,1.16,1.45,1.82a.75.75,0,0,0,.47.1.59.59,0,0,0,.56-.25c.07-.14-.06-.33-.17-.47Z"/><path class="cls-1" d="M131.43,156l-3.36.83a.51.51,0,0,0-.18.59.64.64,0,0,0,.61.53l.18,0,3.16-.78a.47.47,0,0,0,.2-.56.72.72,0,0,0-.61-.58"/><path class="cls-1" d="M94.16,151.08c-.58-1.76-4.21-3.3-9.22-3.93-.32,0-.54.16-.56.35s.1.45.47.57c4,.86,6.3,1.69,7.64,2.7.4.33.58.58.59.82a.74.74,0,0,1-.34.55.68.68,0,0,0-.3.54c0,.49.19.58.5.57a3.46,3.46,0,0,0,.48-.06,2,2,0,0,0,.74-2.11"/><path class="cls-1" d="M85.27,145.5c.15-.72-.74-2.47-5.06-4.48L80,141a.21.21,0,0,0-.23.13.46.46,0,0,0,.18.47c.27.19.53.38.81.55l.41.3a12.36,12.36,0,0,1,2.49,1.94.67.67,0,0,1,.29.54.48.48,0,0,1-.2.38c-.15.26-.08.32,0,.35a1.79,1.79,0,0,0,1,.3.56.56,0,0,0,.62-.44"/><path class="cls-1" d="M86,143c.65.28,1.26.56,1.78.81a8.06,8.06,0,0,0,2.31.88h.28c.65,0,1.09-.25,1.19-.65a.9.9,0,0,0-.51-.95.78.78,0,0,0-.35-.13l-.08.12a.72.72,0,0,1-.69.49,1.91,1.91,0,0,1-.59-.11A61.66,61.66,0,0,1,81,139.27a1,1,0,0,0-.42-.12c-.17,0-.27.07-.3.16l.1.35A38.7,38.7,0,0,0,86,143"/><path class="cls-1" d="M55.11,99.85l.07,0A2.75,2.75,0,0,1,56.53,101a3.61,3.61,0,0,1,.09,1.68,5.41,5.41,0,0,1-.24,1.23c0,.08-.18.1-.4.08l-3.37-.44.12-1.1c.07-.54.22-.73.32-.79a2.47,2.47,0,0,1,1.07-.16l.11,0,.07-.49-3.53-.45-.06.5.1,0a2.68,2.68,0,0,1,1,.44c.09.08.18.3.1.85l-.12,1.1-3-.39c-.22,0-.29-.06-.31-.08s0,0,0-.21l.2-1.54c.1-.78.27-1.07.4-1.17a2.24,2.24,0,0,1,1.19-.24h.11l.07-.53-2.28-.25-.81,6.28.5.06,0-.12c.11-.47.24-.63.34-.69a.79.79,0,0,1,.44-.08c.14,0,.3,0,.49,0l6.3.81a1.8,1.8,0,0,1,.89.26c.07.08.14.28.14.78v.1l.51.07.81-6.36-2.57-.9Z"/><path class="cls-1" d="M56.82,93.18a2.76,2.76,0,0,0-1.56,0,6.05,6.05,0,0,0-1.67,1l-1,.77a3.37,3.37,0,0,1-1,.58,1.45,1.45,0,0,1-.9,0A1.18,1.18,0,0,1,50,95a1.07,1.07,0,0,1-.11-.78,1.78,1.78,0,0,1,.78-1,3.24,3.24,0,0,1,2-.37h.12l.13-.5-3.27-.55-.11.45.1,0a1,1,0,0,1,.27.19s.06,0,0,.18-.06.11-.38.51a2.7,2.7,0,0,0-.49.9,2,2,0,0,0,.34,1.76A2.94,2.94,0,0,0,51,96.93a2.54,2.54,0,0,0,1.63-.11,3.47,3.47,0,0,0,.89-.52l1-.75a7.24,7.24,0,0,1,1.2-.81,1.78,1.78,0,0,1,1.19-.08,1.57,1.57,0,0,1,1,.62,1.21,1.21,0,0,1,.18.93,1.88,1.88,0,0,1-1.32,1.29,5.26,5.26,0,0,1-1.62.28h-.1l-.11.48,3.28.47.12-.47-.1,0L58,98.07l0-.16a5.46,5.46,0,0,1,.38-.54,2.84,2.84,0,0,0,.55-1.06,2.33,2.33,0,0,0-.33-2,2.77,2.77,0,0,0-1.72-1.16"/><path class="cls-1" d="M60.8,88.27c-.24.49-.41.64-.51.69a1.68,1.68,0,0,1-.93-.17l-6.7-2.58.18-.48c.22-.58.47-.92.72-1a3.16,3.16,0,0,1,1.5.07l.11,0,.18-.48-2.52-.9-2.42,6.27,2.48,1,.19-.48-.1,0a2.74,2.74,0,0,1-1.15-1A1.63,1.63,0,0,1,52,88l.18-.49L58.7,90a2.36,2.36,0,0,1,1,.53c.05.08.09.29-.07.86l0,.1.48.19,1.28-3.35-.47-.18Z"/><path class="cls-1" d="M60.39,81.32l-1.07,2-2.47-2.6Zm4.5-1.21a1,1,0,0,1-.44.34,4.06,4.06,0,0,1-1-.07l-8.59-1.29-.19.37,5.15,5.45a16.1,16.1,0,0,1,1.34,1.54.78.78,0,0,1,0,.67l0,.11.43.24,1.19-2.23L62.31,85l-.06.09a1.78,1.78,0,0,1-.33.39.42.42,0,0,1-.43,0,2.57,2.57,0,0,1-.36-.28c-.16-.15-.55-.55-1.2-1.21l1.32-2.49,1.34.22.56.11a1.81,1.81,0,0,1,.32.12c.14.07.21.14.21.2a2,2,0,0,1-.17.59l0,.11.43.23,1.5-2.8L65,80Z"/><path class="cls-1" d="M67.33,75.19a3.38,3.38,0,0,1-.75,2.09c-.2.28-.31.33-.35.34s-.15,0-.35-.14L60,73.2c-.22-.16-.24-.25-.24-.29s0-.16.19-.4a3.27,3.27,0,0,1,2.15-1.4c.14,0,.3,0,.46,0a4.87,4.87,0,0,1,2.77,1.08,4.08,4.08,0,0,1,2,3m.36-2.74a6.05,6.05,0,0,0-1.47-1.52c-1.62-1.18-3.17-1.48-4.59-.87a5.14,5.14,0,0,0-2.12,1.79l-1.9,2.59.41.29.08-.08c.32-.36.51-.45.64-.45a1.61,1.61,0,0,1,.81.42l5.14,3.74c.53.39.62.59.64.67s0,.31-.24.74l0,.09.4.3,2-2.66a5.39,5.39,0,0,0,1-2,3.23,3.23,0,0,0,0-1.17,4.3,4.3,0,0,0-.71-1.85"/><path class="cls-1" d="M72.73,70.24a1.94,1.94,0,0,1-1.87.45,6,6,0,0,1-2.81-1.79,6.12,6.12,0,0,1-1.85-2.79,1.87,1.87,0,0,1,.42-1.87,1.71,1.71,0,0,1,1.32-.52,3.36,3.36,0,0,1,.51.05,5.81,5.81,0,0,1,2.84,1.81,5.81,5.81,0,0,1,1.87,2.8,2,2,0,0,1-.43,1.86m-.35-5.76a5.64,5.64,0,0,0-3.48-1.79,3.44,3.44,0,0,0-3.79,3.84,6.57,6.57,0,0,0,5.23,5.23l.5,0a3.34,3.34,0,0,0,2.44-1,3.4,3.4,0,0,0,1-2.8,5.65,5.65,0,0,0-1.86-3.5"/><path class="cls-1" d="M77.78,61.17a5.46,5.46,0,0,0-1.8-.23H74.52a3.37,3.37,0,0,1-1-.14,1.36,1.36,0,0,1-.73-.53,1.14,1.14,0,0,1-.29-.87,1,1,0,0,1,.38-.69A1.78,1.78,0,0,1,74,58.41a3.49,3.49,0,0,1,1.82.93l.07.06.41-.31-2.26-2.43-.36.29,0,.09a.89.89,0,0,1,.11.31l-.11.16s-.1.06-.59.19a2.45,2.45,0,0,0-.93.41,2,2,0,0,0-.8,1.61,2.86,2.86,0,0,0,.69,1.85,2.68,2.68,0,0,0,1.36.92,4,4,0,0,0,1,.12h1.35a6.5,6.5,0,0,1,1.33.09,1.83,1.83,0,0,1,1,.66,1.72,1.72,0,0,1,.41,1.1,1.15,1.15,0,0,1-.43.84,1.88,1.88,0,0,1-1.83.24,5.15,5.15,0,0,1-1.45-.77l-.08-.05-.39.3,2.33,2.36.38-.29L77.08,67,77,66.71l.07-.16a3.23,3.23,0,0,1,.63-.19,3.18,3.18,0,0,0,1.08-.51,2.41,2.41,0,0,0,.94-1.76,3.07,3.07,0,0,0-1.91-2.92"/><path class="cls-1" d="M88.4,51.2A3.27,3.27,0,0,1,88,49.88a1.18,1.18,0,0,1,.56-.65l.09-.06-.22-.45L85.8,50l.21.45.1,0a1.12,1.12,0,0,1,.84,0c.13.06.38.32.78,1.15l1.62,3.35A5.33,5.33,0,0,1,90,56.76a1.69,1.69,0,0,1-1.1,1.75A1.59,1.59,0,0,1,87,58.26a4.83,4.83,0,0,1-1-1.43l-2-4.12c-.27-.58-.27-.81-.24-.9s.15-.29.59-.55l.09,0-.21-.46-3.15,1.52.21.46.11,0a1.26,1.26,0,0,1,.79-.12c.09,0,.27.18.54.76l2,4A5.57,5.57,0,0,0,86,59.16a2.63,2.63,0,0,0,1.66.63A3.46,3.46,0,0,0,89,59.43a2.65,2.65,0,0,0,1.69-2.6A6.28,6.28,0,0,0,90,54.54Z"/><path class="cls-1" d="M97,46.8c.07-.21.29-.39.66-.57l.09,0-.14-.47-2.81.87.16.49.1,0a1.15,1.15,0,0,1,.77,0c.16.1.4.42.68,1.3L97.8,52.5l-6-5-2.06.64.16.49.13,0a1.07,1.07,0,0,1,.47-.06,1.25,1.25,0,0,1,.48.28l.19.15,1.88,6a3.12,3.12,0,0,1,.24,1.36c-.06.19-.29.39-.68.57l-.1.05.15.48,2.8-.89-.15-.47-.11,0a1.27,1.27,0,0,1-.77,0,2.66,2.66,0,0,1-.66-1.31l-1.55-4.89,6.91,5.72.36-.12-2.29-7.29A3,3,0,0,1,97,46.8"/><path class="cls-1" d="M104.07,53.84l-.39,0a.92.92,0,0,1-.47-.09c-.07,0-.21-.22-.34-.88l-1.24-6.24c-.13-.59-.08-.84,0-.94s.24-.24.76-.39l.11,0-.09-.5-3.58.71.11.5H99a1.26,1.26,0,0,1,.84.06c.1.07.24.28.35.88l1.25,6.23c.14.66.07.87,0,.94a1.49,1.49,0,0,1-.77.38l-.11,0,.11.5,3.55-.71-.09-.5Z"/><path class="cls-1" d="M107.22,53.12c-.18,0-.25,0-.28,0s-.1-.1-.12-.35l-.65-7.24c0-.27,0-.34.06-.36s.14-.1.43-.12a2.88,2.88,0,0,1,.41,0,3.11,3.11,0,0,1,2.06.71,4.5,4.5,0,0,1,1.35,3.12,4.06,4.06,0,0,1-1,3.48,3.42,3.42,0,0,1-2.06.83Zm2.38-8.49a5.13,5.13,0,0,0-2.75-.43l-3.19.29,0,.51h.11c.49,0,.68.09.75.17s.19.26.25.9l.55,6.33c.06.65,0,.86-.07.92s-.25.2-.73.32l-.1,0,0,.5,3.29-.3a5.19,5.19,0,0,0,2.17-.6,3.8,3.8,0,0,0,.9-.74,4.31,4.31,0,0,0,.92-1.76,6.15,6.15,0,0,0,.18-2.1c-.18-2-1-3.37-2.37-4"/><path class="cls-1" d="M119.33,48.92a6,6,0,0,1-.86,3.24,1.89,1.89,0,0,1-1.68.9A2,2,0,0,1,115.21,52a6.27,6.27,0,0,1-.52-3.3,6.19,6.19,0,0,1,.86-3.22,2,2,0,0,1,1.6-.94h.09a1.94,1.94,0,0,1,1.57,1.07,6,6,0,0,1,.52,3.34m-2-5.18a3.38,3.38,0,0,0-2.75,1.17,5.69,5.69,0,0,0-1.38,3.68,5.82,5.82,0,0,0,.91,3.7,3.38,3.38,0,0,0,2.69,1.55h.19a3.38,3.38,0,0,0,2.53-1.15,5.59,5.59,0,0,0,1.41-3.7,5.67,5.67,0,0,0-1-3.8,3.41,3.41,0,0,0-2.63-1.46"/><path class="cls-1" d="M127.39,45.14a.67.67,0,0,1-.17.28l-.11,0H127s-.11-.05-.53-.33a2.48,2.48,0,0,0-.92-.43,2,2,0,0,0-1.75.46,3,3,0,0,0-.92,1.74,2.55,2.55,0,0,0,.21,1.63,4.14,4.14,0,0,0,.59.86l.82.92a6.72,6.72,0,0,1,.88,1.14,1.77,1.77,0,0,1,.17,1.18,1.64,1.64,0,0,1-.58,1,1.12,1.12,0,0,1-.89.23,1.86,1.86,0,0,1-1.39-1.21,5.3,5.3,0,0,1-.38-1.6V51l-.49-.1-.23,3.31.46.09,0-.11.13-.27.16-.05a2.63,2.63,0,0,1,.56.35,2.82,2.82,0,0,0,1.1.46,2.09,2.09,0,0,0,.49,0,2.23,2.23,0,0,0,1.44-.5,3.06,3.06,0,0,0,.94-3.37,6.08,6.08,0,0,0-1.09-1.58l-.84-.94a3.78,3.78,0,0,1-.65-.93,1.54,1.54,0,0,1-.08-.91,1.21,1.21,0,0,1,.46-.8,1.09,1.09,0,0,1,.77-.17,1.75,1.75,0,0,1,1,.71,3.38,3.38,0,0,1,.5,2v.11l.51.1.33-3.29-.45-.09Z"/><path class="cls-1" d="M141.22,59.83a1.28,1.28,0,0,1-.57-.51,1.58,1.58,0,0,1,.24-.91l2.55-5.81c.25-.54.41-.72.52-.77a1.15,1.15,0,0,1,.77.07l.1,0,.2-.47-2.27-1-5,5.29.46-7.31-2.27-1-.2.46.11.07c.45.23.6.42.63.53a1.56,1.56,0,0,1-.23.91l-2.33,5.3a3.11,3.11,0,0,1-.72,1.19,1.17,1.17,0,0,1-.89,0l-.12,0-.19.46,2.68,1.19.2-.46-.08-.06c-.41-.25-.51-.42-.55-.53a2.49,2.49,0,0,1,.36-1.43l2-4.56-.48,7.68.31.13L142,52.49l-2.29,5.19c-.32.69-.49.88-.57.93a1.2,1.2,0,0,1-.81-.07l-.11,0L138,59l3.16,1.4.2-.47Z"/><path class="cls-1" d="M148.05,61.71l-.07,0a2.88,2.88,0,0,1-1.54.75h0a3.47,3.47,0,0,1-1.56-.64,4.64,4.64,0,0,1-1-.72c-.07-.09,0-.26.1-.39l1.82-2.88.94.64c.46.29.57.49.58.62a2.53,2.53,0,0,1-.3,1l0,.1.43.27,1.9-3-.43-.28-.07.09a2.53,2.53,0,0,1-.81.71c-.16.07-.45,0-.83-.26l-.93-.63,1.64-2.59c.12-.18.18-.23.22-.24l.17.07,1.32.84c.65.42.86.7.89.85a2.07,2.07,0,0,1-.28,1.18l0,.11.45.28,1.19-2-5.34-3.38-.27.43.09.07c.39.29.48.48.49.59a1.61,1.61,0,0,1-.36.86L143,59.65c-.34.55-.55.67-.62.68a1.38,1.38,0,0,1-.76-.19l-.09,0-.27.43L146.62,64l1.91-2Z"/><path class="cls-1" d="M153.59,69a1.65,1.65,0,0,1-.33-.57,3,3,0,0,1,.07-.94l.87-4.32,2.85-.89A4.37,4.37,0,0,1,158.5,62a1.26,1.26,0,0,1,.6.29l.09.08.34-.4-2.27-1.91-.33.4.08.09a1.35,1.35,0,0,1,.36.36.29.29,0,0,1-.08.33l-.19.15a3.43,3.43,0,0,1-.71.27l-2,.6.42-2.18a1.7,1.7,0,0,1,.09-.33,1.18,1.18,0,0,1,.19-.39c.1-.11.17-.15.29-.11s.19.08.51.33l.1.07.33-.39-2.82-2.38-.33.39.08.09a1.11,1.11,0,0,1,.39.78,12.86,12.86,0,0,1-.32,2.14l-.5,2.49-3,.93a13.1,13.1,0,0,1-1.57.41,1.05,1.05,0,0,1-.63-.2l-.11-.06-.33.38,2.23,1.86.32-.38-.08-.09a2.39,2.39,0,0,1-.35-.43.3.3,0,0,1,0-.38.9.9,0,0,1,.4-.22,7.31,7.31,0,0,1,.75-.26l2.17-.69c-.29,1.45-.49,2.36-.57,2.71a2.15,2.15,0,0,1-.25.67l-.26.12a2.18,2.18,0,0,1-.52-.33l-.11-.08-.32.39,2.75,2.33.33-.38Z"/><path class="cls-1" d="M156.44,70.39,161,66c.43-.43.66-.51.8-.52s.32.07.7.43l.1.08.36-.35L160.48,63l-.37.35.09.1c.33.41.4.63.39.75s-.11.34-.55.76l-4.59,4.4c-.47.46-.69.53-.77.53s-.34-.09-.74-.43l-.1-.09-.36.36L156,72.35l.36-.34-.07-.09c-.34-.43-.42-.65-.42-.76s.08-.3.57-.77"/><path class="cls-1" d="M162,77.22h.07l.15-.57h-.17a5.13,5.13,0,0,1-1.26-.18,2.52,2.52,0,0,1-1.35-.92,2.23,2.23,0,0,1-.34-2.18A5,5,0,0,1,161,70.91a5.91,5.91,0,0,1,3-1.39,2.16,2.16,0,0,1,2,.77,2,2,0,0,1,.26,2,4.93,4.93,0,0,1-.82,1.38l-.06.08.3.38L168.36,72l-.28-.37-.1,0a.45.45,0,0,1-.31,0l-.21-.12a5.34,5.34,0,0,1-.25-.69,4,4,0,0,0-.62-1.18,3.56,3.56,0,0,0-3-1.41h-.11a5.86,5.86,0,0,0-3.48,1.35,5.65,5.65,0,0,0-2.1,2.94,3.58,3.58,0,0,0,.65,3.33,3.5,3.5,0,0,0,2,1.21,4.57,4.57,0,0,0,1,.12l.45,0"/><path class="cls-1" d="M169,77.76l-2.37,2.7-1.14-2Zm-3.71,7.16a1,1,0,0,1-.07-.55,3.67,3.67,0,0,1,.62-.85l5.61-6.61-.2-.35-7.34,1.49a12.7,12.7,0,0,1-2,.33.82.82,0,0,1-.6-.33L161.2,78l-.44.26,1.29,2.18.42-.26,0-.11a1.68,1.68,0,0,1-.16-.48.43.43,0,0,1,.25-.35,3.13,3.13,0,0,1,.43-.16l1.66-.37L166,81.12l-.89,1a5,5,0,0,1-.4.4,1.52,1.52,0,0,1-.27.22c-.17.1-.23.09-.28.07a2,2,0,0,1-.4-.45l-.07-.09-.44.25,1.6,2.73.43-.26Z"/><path class="cls-1" d="M175.83,88.8q.33.06.63.6l0,.09.46-.18-1.1-2.73-.46.19,0,.11c.13.46.09.67,0,.77s-.38.42-1.24.77l-4,1.61,4.48-6.35-.79-2-.5.19.05.12a1.11,1.11,0,0,1,.1.48,1.21,1.21,0,0,1-.25.5l-.12.19-5.8,2.35a3.53,3.53,0,0,1-1.34.34c-.21,0-.43-.25-.64-.64l0-.09-.46.18L166,88l.47-.19,0-.11c-.12-.45-.09-.67,0-.76s.39-.42,1.26-.77l4.76-1.91-5.14,7.26,0,.06.15.36,7.09-2.85a2.89,2.89,0,0,1,1.33-.33"/><path class="cls-1" d="M170.84,98.15A1.83,1.83,0,0,1,170.1,95a6.11,6.11,0,0,1,3-1.44,9.56,9.56,0,0,1,2.07-.28,3.69,3.69,0,0,1,1.27.19,1.92,1.92,0,0,1,1.37,1.35,2,2,0,0,1-.57,1.8,8.15,8.15,0,0,1-6.41,1.56m2,1.62a7.77,7.77,0,0,0,1.73-.21,5.8,5.8,0,0,0,3.36-2,3.46,3.46,0,0,0,.64-2.94,3.36,3.36,0,0,0-1.9-2.3,5.74,5.74,0,0,0-3.93-.27A5.83,5.83,0,0,0,169.46,94a3.38,3.38,0,0,0-.72,3,3.42,3.42,0,0,0,1.86,2.29,5.18,5.18,0,0,0,2.24.5"/><path class="cls-1" d="M180.23,104.54h-.1a.66.66,0,0,1-.32-.07s-.07,0-.09-.17a3.79,3.79,0,0,1,.15-.6,2.85,2.85,0,0,0,.14-1,2,2,0,0,0-1-1.51,2.9,2.9,0,0,0-1.94-.38,2.72,2.72,0,0,0-1.49.7,3.69,3.69,0,0,0-.64.81l-.64,1.06a7.59,7.59,0,0,1-.82,1.18,1.8,1.8,0,0,1-1.08.51,1.59,1.59,0,0,1-1.16-.23,1.11,1.11,0,0,1-.49-.79,1.8,1.8,0,0,1,.75-1.68,5.55,5.55,0,0,1,1.4-.85l.09,0L173,101l-3.22.76,0,.48h.11l.31,0,.1.14a5.35,5.35,0,0,1-.17.65,3,3,0,0,0-.12,1.17,2.39,2.39,0,0,0,1,1.72,2.67,2.67,0,0,0,1.61.49,3,3,0,0,0,.42,0,2.77,2.77,0,0,0,1.46-.58,5.45,5.45,0,0,0,1.19-1.52l.65-1.08a3.51,3.51,0,0,1,.7-.9,1.45,1.45,0,0,1,.83-.34,1.14,1.14,0,0,1,.9.2,1,1,0,0,1,.41.69,1.89,1.89,0,0,1-.39,1.19,3.37,3.37,0,0,1-1.72,1.07l-.1,0,.06.51,3.23-.67Z"/><path class="cls-1" d="M111.6,171.82a.8.8,0,0,1-.86-.54,7.66,7.66,0,0,1,.05-4.09.88.88,0,0,1,.8-.74.93.93,0,0,1,.94.68,13.41,13.41,0,0,1,0,3.9,1.1,1.1,0,0,1-1,.79"/><path class="cls-1" d="M115.57,171.65c-.45,0-.93-.16-.95-.63l0-3.33a1.57,1.57,0,0,1,.3-1.14.93.93,0,0,1,.62-.31c.5,0,1,.35,1.08,1.18l0,3.15a1,1,0,0,1-.21.72,1.11,1.11,0,0,1-.78.36"/><path class="cls-1" d="M103.54,174.28a3,3,0,0,1-.51,0,.74.74,0,0,1-.6-.75.65.65,0,0,1,.47-.66,1.79,1.79,0,0,1,.43-.08,1,1,0,0,1,.87.3,1,1,0,0,1,0,.9.91.91,0,0,1-.68.31"/><path class="cls-1" d="M123,174.54a.73.73,0,0,1-.65-.25.81.81,0,0,1-.08-.69,1.14,1.14,0,0,1,.94-.78h.3a.72.72,0,0,1,.61.6,1.11,1.11,0,0,1-.6,1,1.22,1.22,0,0,1-.52.17"/><path class="cls-1" d="M105.56,172.75a1,1,0,0,1-.38,0l-.85-.61a.33.33,0,0,1,.08-.37,8.26,8.26,0,0,1,4.54-2.1h0c.36,0,.53.25.59.52a.94.94,0,0,1-.56,1,5.55,5.55,0,0,0-2.69,1.11,1,1,0,0,1-.75.45"/><path class="cls-1" d="M121.16,173c-.08,0-.14-.06-.25-.17a7,7,0,0,0-3.07-1.64c-.15,0-.29-.06-.32-.41-.09-.77,0-1,0-1.06a7.93,7.93,0,0,1,4.76,2.08l.14.26-.16.17-.93.67Z"/><path class="cls-1" d="M118.22,179.83a.8.8,0,0,1-.59-.22,31.3,31.3,0,0,0-3.57-1.76.72.72,0,0,1-.31-.85,1.27,1.27,0,0,1,1-.93l.3,0a11.46,11.46,0,0,0,2,.94,7.44,7.44,0,0,1,2,1c.16.1.33.24.35.4a.51.51,0,0,1-.14.34l-.56.75a.91.91,0,0,1-.52.27"/><path class="cls-1" d="M104,178.71l-.23-.08a.63.63,0,0,1-.1-.53c.13-2,2-3.17,3.9-4.45.63-.41,1.27-.83,1.87-1.28a1.41,1.41,0,0,1,.58-.29.35.35,0,0,1,.3.1l1,.57c.14.09.23.18.23.25a.52.52,0,0,1-.19.33,13.22,13.22,0,0,1-2,1.37,7.7,7.7,0,0,0-3.09,2.7,3.37,3.37,0,0,1-2.19,1.31Z"/><path class="cls-1" d="M109.32,179.6a.84.84,0,0,1-.41-.07l-.76-.67c-.35-.41-.29-.82.25-1.39a15.84,15.84,0,0,1,2.49-2,16.78,16.78,0,0,0,2.65-2.09,1.39,1.39,0,0,1,1-.62h.23l.66-.07c.31,0,.68,0,.76.09s-.31.82-.43,1a12.18,12.18,0,0,1-3.24,2.78,7.57,7.57,0,0,0-2.7,2.5c-.15.4-.33.46-.47.46"/><path class="cls-1" d="M122.88,178.06a3.21,3.21,0,0,1-.62,0,2.3,2.3,0,0,1-1.16-.73,6,6,0,0,0-1.54-1.09q-.63-.28-1.23-.51a15.85,15.85,0,0,1-1.61-.71.71.71,0,0,1-.44-.49c-.07-.32.24-.78.55-1.17.15-.19.27-.29.4-.3a.72.72,0,0,1,.44.16,10.09,10.09,0,0,0,1.86,1,9,9,0,0,1,4.36,3.21.37.37,0,0,1,.06.3.36.36,0,0,1-.23.2,3.39,3.39,0,0,1-.84.17"/><path class="cls-1" d="M96.75,170.54c1,0,1.52.2,1.68.54a1.08,1.08,0,0,1-.17.95c-.23.4-.19.61-.12.74a.39.39,0,0,0,.36.16c.46,0,1.07-.6,1.38-1.6,0-.41.43-.67,1.2-.86a1,1,0,0,0,.54-1.09c-.07-.32-.26-.53-.47-.51a.47.47,0,0,0-.3.17,2.34,2.34,0,0,1-1.19.65l-.41.06a2,2,0,0,1-2-.93l-1.24-2q-.25-.37-.48-.36h-.08l-.12.12a.84.84,0,0,0,.07.71L96,168.5a.62.62,0,0,1,.08.49.82.82,0,0,1-.51.24h0c-1.77.14-3.25-.73-4.64-2.64a.8.8,0,0,0-.58-.39h-.06l-.17.16a.7.7,0,0,0,.14.6l.64.93c.21.27.2.39.18.43s-.15.12-.33.15a6.88,6.88,0,0,1-4.6-1.74.92.92,0,0,0-.54-.17c-.23.2-.22.33-.14.51l.22.56c0,.13.08.27,0,.35s-.18.13-.38.15l-2.54.27c-.36,0-.6.17-.6.36s.35.36.94.34a16.31,16.31,0,0,1,5.76.27c.13,0,.28.08.32.17a.53.53,0,0,1-.11.38l-.93,1c-.25.22-.37.45-.31.62s.1.19.34.17a1.65,1.65,0,0,0,.34-.08A8.37,8.37,0,0,1,92,170.1a2.32,2.32,0,0,1,.93.09.55.55,0,0,1,.51.34.56.56,0,0,1-.06.61l-.49,1.13c-.1.32-.13.54-.05.66h.23a.83.83,0,0,0,.49-.25c.85-1,1.9-2.06,3-2.13Zm-.5,5.07c-.37,0-.62-.12-.72-.3a.61.61,0,0,1,.08-.54l.91-1.51a.56.56,0,0,0,0-.55.42.42,0,0,0-.38-.15,1.73,1.73,0,0,0-1,.54,5.8,5.8,0,0,1-3.83,2.05,5.48,5.48,0,0,1-1.07,0,.7.7,0,0,1-.45-1.24l1.15-1.44c.13-.32.14-.51.06-.63l0-.06-.25,0a1.17,1.17,0,0,0-.36.1l-2.78,1.37a2.55,2.55,0,0,1-.86.24,1.81,1.81,0,0,1-1.52-.6.51.51,0,0,1-.2-.4l.18-.21A4,4,0,0,0,86.39,171c.15-.22.2-.39.14-.53s-.28-.27-.67-.28c-1,.15-1.91.25-2.72.32-1.7.14-2.8.06-3.25-.29-.29-.23-.42-.46-.39-.68s.31-.6.9-1l2.79-1.09a.76.76,0,0,0,.5-.45.59.59,0,0,0-.24-.54.64.64,0,0,1-.16-.45.83.83,0,0,1,.39-.4,2.12,2.12,0,0,1,1.06-.37,4.66,4.66,0,0,1,3.09,1.32,1.09,1.09,0,0,0,.49.19c.25-.21.25-.36.15-.66L88.13,165c-.09-.27-.11-.48,0-.61a.55.55,0,0,1,.47-.2c1.46-.12,2.76.66,4.31,2.55a1.08,1.08,0,0,0,.73.43h.08l.19-.16a1,1,0,0,0-.17-.84l-.5-1.11a1,1,0,0,1,.08-.69,1.09,1.09,0,0,1,.74-.38,4.74,4.74,0,0,1,.61-.09c1-.08,1.59.2,1.8.87l1.4,2.38a.89.89,0,0,0,.76.5c.29,0,.56-.24.85-.69.13-.43.34-.49.48-.5q.67,0,2.19,1.35a1.6,1.6,0,0,0,1.36.52,2.16,2.16,0,0,0,.85-.24,10.62,10.62,0,0,1,3.47-.94,5.91,5.91,0,0,1,1.52,0,.63.63,0,0,1,.53.73c-.07.41-.59.88-1.53,1a3.46,3.46,0,0,1-.46,0,1.28,1.28,0,0,0-.5,0c-1.11.09-2.69,1.13-4,2a2,2,0,0,1-1.24.49,1.77,1.77,0,0,0-.7.21c-.42.06-.89.61-1.49,1.33-.94,1.12-2.11,2.54-3.76,2.72"/><path class="cls-1" d="M73.65,160.84c.65-.06,1.06.07,1.27.4a2,2,0,0,1,.06.37c0,.33.09.78.52.75l2.17-.13c.23,0,.35,0,.41-.15s0-.29-.09-.46c-.43-.89-.7-1-1.12-1l-.24,0a1.2,1.2,0,0,1-.64-.12c-.93-.5-1.32-2-1.18-4.61a.76.76,0,0,0-.09-.63l-.16,0c-.2,0-.32.18-.38.62l-.2,1.27c0,.55-.27.56-.34.57a.78.78,0,0,1-.41-.09,4.66,4.66,0,0,1-2.16-3.24c0-.55.15-3.24-.83-1.57-.34.24-.92-.8-1.26-1.59-.08-.29-.24-.45-.42-.44a.56.56,0,0,0-.27.59.75.75,0,0,1-.28.74c-.23.1-.46.24-.44.42s.16.23.52.3c.87.15,1.67,1.16,2.35,3,.12.24.1.33.07.36l-2.57.07h-.35c-.33,0-.39.18-.39.26,0,.26.34.5.7.54l2.62.37a2.21,2.21,0,0,1,2.06,1.32.91.91,0,0,1,.21.72.36.36,0,0,1-.28.23,20.76,20.76,0,0,1-2.93.75c-.41.06-.59.16-.62.32s.17.32.72.5a2.64,2.64,0,0,0,1.06.08,9.33,9.33,0,0,0,1.49-.26,11.71,11.71,0,0,1,1.42-.24m8.69,4.5a.8.8,0,0,1-.51-.17,7.51,7.51,0,0,0-5.73-1.78,11.76,11.76,0,0,0-2.45.46.45.45,0,0,1-.34-.21,1.12,1.12,0,0,1,0-.78c0-.51-.2-.71-.62-.68a2.32,2.32,0,0,0-.39.07c-.44.07-.78.12-1.11.14-2.43.2-4-.42-4.93-2a.66.66,0,0,1,0-.46.65.65,0,0,1,.44-.19l3.34-.42c.36,0,.47-.19.5-.33s-.11-.43-.5-.52c-3.37-.54-5.38-1.53-6-3a.61.61,0,0,1-.08-.53c.06-.11.25-.19.55-.21L67,155c.41,0,.59-.11.63-.26s-.13-.35-.48-.58l-2.56-1.41a.66.66,0,0,1-.29-.68,1,1,0,0,1,.88-.45,8.17,8.17,0,0,0,1,0,1.11,1.11,0,0,0,.81-.31c.28-.31.27-.8.25-1.64l0-.78c0-.58.15-.91.32-.94s.53.13,1.35,1.26c.39.5.66.75.9.73s.47-.54.65-1.4c.11-.4.31-.42.37-.42a1.06,1.06,0,0,1,.59.23c1,.6,1,3.23.94,5.72a.53.53,0,0,0,.14.49.45.45,0,0,0,.38.17c.14,0,.46-.11.55-.76l.35-1.64c.13-.44.33-.69.61-.71a1.48,1.48,0,0,1,.94.4c1,.87,1.25,2.31,1.14,5.69a.8.8,0,0,0,.2.6.47.47,0,0,0,.36.13c.25,0,.57-.25.76-.79.09-.22.23-.38.34-.39s.29.14.41.57a8.91,8.91,0,0,0,3.93,6.57.62.62,0,0,1,.21.7.4.4,0,0,1-.36.28"/><path class="cls-1" d="M81.57,159.35a.74.74,0,0,1-.72-.52.68.68,0,0,1,.19-.69,1.85,1.85,0,0,1,1-.46,1,1,0,0,1,.78.24.85.85,0,0,1,.22.68,1.65,1.65,0,0,1-1.46.75Z"/><path class="cls-1" d="M75.17,167.52h-.4a1.06,1.06,0,0,1-.68-1,1.14,1.14,0,0,1,.42-.95,2.06,2.06,0,0,1,.61-.18c.55-.05.87.35,1,1.21a.8.8,0,0,1-.18.56,1.15,1.15,0,0,1-.78.31"/><path class="cls-1" d="M83.79,164.18c-.23,0-.71-.32-1.21-1.12a2.42,2.42,0,0,0-1.47-1.26.84.84,0,0,1-.54-1,.73.73,0,0,1,.7-.61h.29a4.92,4.92,0,0,0,1.45-.37,1.79,1.79,0,0,1,.48-.14.73.73,0,0,1,.79.45.79.79,0,0,1-.21.84,1.29,1.29,0,0,0-.5,1.43c.42,1,.45,1.49.34,1.68Z"/><path class="cls-1" d="M77.59,168a.63.63,0,0,1-.68-.51,3.82,3.82,0,0,0-.32-1.6,1.19,1.19,0,0,1-.11-1.18.71.71,0,0,1,.59-.36,1.16,1.16,0,0,1,.71.19,2.19,2.19,0,0,0,1.73.63,2,2,0,0,1,1.46.33c.23.21.26.35.24.42a5.19,5.19,0,0,1-.52.09H80.6a2.21,2.21,0,0,0-2,1.24,1.24,1.24,0,0,1-1,.74"/><path class="cls-1" d="M58.12,144.06a.32.32,0,1,0,0,.64c1-.06,1.92-.08,2.35.45a.49.49,0,0,0,.42.2H61l.19-.17a.56.56,0,0,0-.09-.52c-.45-.57-.29-1.23.47-2.21.19-.23.26-.45.2-.59l0-.06-.24-.08a.86.86,0,0,0-.31.1,2.22,2.22,0,0,1-.53.12,1,1,0,0,1-1-.39,2.86,2.86,0,0,1,0-2.4c.38-1.15.82-2.4,1.24-3.59.05-.22.12-.49,0-.62h-.14a.58.58,0,0,0-.45.4c-.3.67-.54,1.28-.75,1.82-.33.91-.6,1.62-.93,1.65s-1.06-.91-1.51-1.63a3,3,0,0,1-.07-2.91.8.8,0,0,0,0-.57l-.21,0a.38.38,0,0,0-.34.3c-.32.56-.52.8-.7.82s-.64-.37-1.1-.93a.46.46,0,0,0-.39-.17.5.5,0,0,0-.43.32.64.64,0,0,0,.12.68l.2.18c.43.43,1.18,1.15,1.1,1.33l-.2,0a3.41,3.41,0,0,1-1.13-.13l-.28,0a.36.36,0,0,0-.34.28c0,.15.09.35.49.41,2.26.22,4,2,3.84,3,0,.34-.31.54-.78.58a4,4,0,0,1-1.55-.23l-.26,0a.38.38,0,0,0-.38.34c0,.18.11.4.54.43,2.41.15,4.1,1.53,4.05,2.38,0,.49-.62.74-1.11.84Zm7.75,6.59a1.46,1.46,0,0,1-.43-.08,12.23,12.23,0,0,1-3.85-2.87A3.43,3.43,0,0,0,59,145.79c-2-.31-3.38-.95-4.12-1.95-.17-.25-.14-.37-.11-.42s.17-.13.4-.15l1.12,0c.43,0,.49-.22.5-.29.05-.25-.23-.5-.66-.61-3.1-.53-4.61-1.39-4.78-2.72-.11-.33-.12-.52,0-.64s.26-.19.55-.21a2.53,2.53,0,0,1,.61,0,1.57,1.57,0,0,0,.32,0c.1,0,.35,0,.39-.21s0-.27-.62-.51A5.7,5.7,0,0,1,50,136.35a1.06,1.06,0,0,1-.06-1,.71.71,0,0,1,.56-.33,2,2,0,0,1,.47,0,1.37,1.37,0,0,0,.67.17A.42.42,0,0,0,52,135c.11-.27-.06-.69-.49-1.11-.14-.3-.19-.53-.09-.69s.33-.24.69-.27a3.14,3.14,0,0,0,.63.06,1.82,1.82,0,0,0,1.14-.62.92.92,0,0,1,.41-.16c.28,0,.51.14.76.54s.48,1,.88.93c.19,0,.44-.14.61-.73s.42-1.12.76-1.15a.89.89,0,0,1,.52.16c.68.39.69,1.53,0,3.4a.78.78,0,0,0,.09.69l0,0,.25.07c.33,0,.69-.45.87-1,.18-1.45.61-2.18,1.29-2.23a1.64,1.64,0,0,1,.48,0,1.41,1.41,0,0,1,1,.7c.48.85.35,2.47-.4,4.82a1,1,0,0,0,.06.88.45.45,0,0,0,.4.18,1,1,0,0,0,.61-.36c.28-.36.56-.58.79-.59a.4.4,0,0,1,.37.19,2.31,2.31,0,0,1-.09,2c-1.9,3.9-1.14,6.87,2.27,8.83a.75.75,0,0,1,.3.76c0,.15-.18.22-.38.25"/><path class="cls-1" d="M65.15,148.5c-.19,0-.34-.14-.39-.39-.14-1.72-.42-2.7-.88-3.11a1.16,1.16,0,0,1-.13-1.09.62.62,0,0,1,.54-.31,1.25,1.25,0,0,1,.33,0,6.05,6.05,0,0,0,2.14.49.73.73,0,0,1,.72.63.59.59,0,0,1-.31.68,1.73,1.73,0,0,0-1.44,2.06c-.06.68-.32,1-.58,1"/><path class="cls-1" d="M66.4,143c-.16,0-.32,0-.49,0-.5-.08-.83-.35-.86-.74a1,1,0,0,1,.64-.92l.53-.1a1.07,1.07,0,0,1,.83.22,1.18,1.18,0,0,1,.24.95c-.09.35-.39.55-.89.59"/><path class="cls-1" d="M58,150.34a.82.82,0,0,1-.88-.48,1.38,1.38,0,0,1,.08-1.31,1,1,0,0,1,.73-.45.85.85,0,0,1,.89.75,1.31,1.31,0,0,1-.09,1,1.1,1.1,0,0,1-.73.45"/><path class="cls-1" d="M60,151.59a.78.78,0,0,1-.72-.27.55.55,0,0,1-.07-.52,6.46,6.46,0,0,0,.31-2.06,1,1,0,0,1,.83-1,.82.82,0,0,1,.79.45,2.36,2.36,0,0,0,1.37,1.35c1,.52,1.34,1,1.29,1.19s-.18.18-.41.2a2.54,2.54,0,0,1-.39,0,2.4,2.4,0,0,0-1.3-.34,1,1,0,0,0-.76.43,1.27,1.27,0,0,1-.94.55"/><path class="cls-1" d="M49.19,117.36c0,.09,0,.25.14.67.75,1.19,1.57,2.65,1.29,3.4a.77.77,0,0,1-.54.46c-.17,0-.47.09-.54.29s.12.41.18.48a1.74,1.74,0,0,0,.74.44c.58.26.92.46.63,1.19l.09.84a1.52,1.52,0,0,0,1.1.58.5.5,0,0,0,.46-.37,1.1,1.1,0,0,0-.56-1.17c-.3-.1-.46-.21-.48-.36s.07-.36.55-.81c1.09-1.2,1.14-1.43,1.08-1.57l0-.08-.18,0a1.71,1.71,0,0,0-.44.17,2.11,2.11,0,0,1-.4.07c-.54.06-.72-.21-.78-1.14,0-1.24.16-1.38.72-1.74,1.19-.74,1.38-1,1.34-1.19s-.26-.24-.83-.21a1.32,1.32,0,0,1-.34.09.25.25,0,0,1-.22-.06.73.73,0,0,1,0-.48,4,4,0,0,1,1.31-2.51c.22-.29.38-.54.31-.75s-.37-.19-.59-.17a2,2,0,0,0-1.43.68,1.89,1.89,0,0,0-.31,1.34l-.27,2c-.07.29-.18.66-.4.68a.58.58,0,0,1-.38-.19c-.69-.61-.91-.69-1-.68h-.07Zm5.2,14.13-.31-.09A2.24,2.24,0,0,1,53,129.75c-.5-2.64-1.13-3.37-2-3.67-1.23-.51-1.35-1.09-1.35-1.48,0-1.09-.46-1.41-1-1.58a2.81,2.81,0,0,1-2.21-1.93c-.25-.88-.17-1.24-.06-1.4a.39.39,0,0,1,.31-.16,2.74,2.74,0,0,1,1.29.41.8.8,0,0,0,.29,0,.42.42,0,0,0,.33-.21c.12-.2.09-.48-.06-.89l-.89-1.57A1.89,1.89,0,0,1,48,115.1c.5-.62.79-.77.94-.78a.26.26,0,0,1,.25.15c.64,1,.93,1.08,1.11,1.07.38,0,.4-.68.42-.9.1-1.57.45-3.47,1.47-3.57a1.33,1.33,0,0,1,.56.11,1.23,1.23,0,0,0,.87.29,2.57,2.57,0,0,0,1.53-1,1.3,1.3,0,0,1,.53-.22c.18,0,.41,0,.58.6a3.24,3.24,0,0,1-1,3.2c-.31.47-.4.73-.31.89s.1.15.29.13a4.41,4.41,0,0,0,1.38-.6.9.9,0,0,1,.4-.21c.2,0,.34.21.38.68.21,1.35-.77,2.48-3.17,3.7a.66.66,0,0,0-.47.67.43.43,0,0,0,.49.39,1.07,1.07,0,0,0,.46-.18,2.77,2.77,0,0,1,1.31-.6.63.63,0,0,1,.73.38c.13.38,0,1.11-.87,2-.53.82-.82,1.23-1.33,1.42-.29.11-.46.25-.5.42a.6.6,0,0,0,.18.57c.33.3.33.7,0,1.22-.88.77-.82,2.51.24,5.29a1.08,1.08,0,0,1,.27,1.06.36.36,0,0,1-.29.22"/><path class="cls-1" d="M58.13,125.36a1.52,1.52,0,0,1-.87-.2.73.73,0,0,1-.3-.87.89.89,0,0,1,.82-.63c.66,0,1.06.15,1.2.41a1.09,1.09,0,0,1,0,1,1.51,1.51,0,0,1-.81.33"/><path class="cls-1" d="M47.49,128.52a1.22,1.22,0,0,1-.69-.15,1,1,0,0,1-.24-1,1.15,1.15,0,0,1,.72-.85,2.49,2.49,0,0,1,.35-.08.71.71,0,0,1,.64.23,1.41,1.41,0,0,1,.08,1.25,1.11,1.11,0,0,1-.86.62"/><path class="cls-1" d="M52.2,130.83a.49.49,0,0,1-.32-.1,2.72,2.72,0,0,0-1.79-.95.93.93,0,0,0-.59.31,1.77,1.77,0,0,1-.57.14.71.71,0,0,1-.67-.24.76.76,0,0,1,0-.74,15.32,15.32,0,0,0,1-2,.9.9,0,0,1,.69-.47.89.89,0,0,1,.94.84l.26.88L52.27,130a.77.77,0,0,1,.12.73Z"/><path class="cls-1" d="M55.79,130.07c-.06,0-.18,0-.37-.44a3.78,3.78,0,0,1,0-1.46,1.94,1.94,0,0,0-.14-1.54,1,1,0,0,1,.05-.93.73.73,0,0,1,.54-.42l.26,0a17.73,17.73,0,0,0,1.85.94.83.83,0,0,1,.7.86c0,.35-.38.6-.89.66-.75.06-1.26.66-1.6,1.78-.23.45-.37.5-.41.5"/><path class="cls-1" d="M145.13,161.16a.89.89,0,0,1-.77-.27.76.76,0,0,1-.11-.7c.18-.47,0-.91-.59-1.32a1.52,1.52,0,0,1-.33-1.61,1.77,1.77,0,0,1,1.49-.91,1.47,1.47,0,0,1,1.34.51,1.93,1.93,0,0,1,0,1.82,1,1,0,0,0-.29,1.29.88.88,0,0,1-.06.8.94.94,0,0,1-.71.39"/><path class="cls-1" d="M162,146.14a.64.64,0,0,1-.72-.56c-.06-.49-.43-.77-1.15-.81-.77-.31-1.16-.83-1-1.47a2.14,2.14,0,0,1,1.76-1.55c.77-.05,1.28.49,1.43,1.59a1,1,0,0,0,.37,1.23.78.78,0,0,1,.29.87,1.14,1.14,0,0,1-.94.7"/><path class="cls-1" d="M171.06,126.47a.8.8,0,0,1-.73-.43.84.84,0,0,0-1-.49,1.86,1.86,0,0,0-.33,0c-1.21-.2-1.33-.94-1.31-1.38a2,2,0,0,1,1.59-1.74c.59,0,1.07.37,1.42,1.19l0,.2c.09.35.17.72.64.87a.75.75,0,0,1,.51.9,1.05,1.05,0,0,1-.85.84"/><path class="cls-1" d="M149.26,167.68a1.73,1.73,0,0,1-1.51-1,.93.93,0,0,0-.81-1,.75.75,0,0,1-.61-.81,1.16,1.16,0,0,1,.93-.94.65.65,0,0,1,.62.3.81.81,0,0,0,.86.39,2.2,2.2,0,0,0,.55-.12c1-.05,1.58.36,1.59,1.13a2.11,2.11,0,0,1-1.62,2"/><path class="cls-1" d="M168.37,149.69a2.36,2.36,0,0,1-1.23-.31.94.94,0,0,0-.89-.47l-.3.07-.21,0a.77.77,0,0,1-.62-.2.71.71,0,0,1-.22-.51.93.93,0,0,1,.86-1h.31a.85.85,0,0,0,.43.09,1.48,1.48,0,0,0,.91-.56,2.28,2.28,0,0,1,.86-.28,1,1,0,0,1,1,.53,2,2,0,0,1,.08,1.88,1.23,1.23,0,0,1-1,.7"/><path class="cls-1" d="M178,127.94a2.14,2.14,0,0,1-.83-.11,1.16,1.16,0,0,0-.86-.27,1.41,1.41,0,0,0-.57.18,2.05,2.05,0,0,1-.31.07.8.8,0,0,1-.93-.78,1.08,1.08,0,0,1,.19-.62.71.71,0,0,1,.56-.31h.25l.29,0a1.27,1.27,0,0,0,.94-.77,1.89,1.89,0,0,1,1.1-.58,1,1,0,0,1,1,.54,2.1,2.1,0,0,1,.16,2,1.19,1.19,0,0,1-1,.63"/><path class="cls-1" d="M129.65,172.73a4.25,4.25,0,0,1-1.46-.15,18,18,0,0,1-4.39-2.19,13.56,13.56,0,0,0-6-1.73.71.71,0,0,1-.56-.83.79.79,0,0,1,.66-.78,30.33,30.33,0,0,1,6.93,2.06,3,3,0,0,0,1.34.2,3.77,3.77,0,0,0,1.58-.54l.91-.39c4.46-2,8.33-3.69,12.47-4,.48,0,1-.06,1.43-.07s.6.11.6.17-.18.3-1.15.4l-.43,0a6.52,6.52,0,0,0-2.47.74c-1.17.54-2.26,1.1-3.28,1.63a15.48,15.48,0,0,1-5,2,1.94,1.94,0,0,1-.42,0c-1.43.19-2.28.59-2.29,1,0,.28.31.47.84.5a6.42,6.42,0,0,0,1.16,0,14,14,0,0,0,4.93-1.6c2.42-1.61,5.28-3.3,8.31-3.8h.36a.93.93,0,0,1,.34,0,2.55,2.55,0,0,1-.37.63c-1.93,2.13-5.63,3.7-8.64,4.84-.83.28-1.57.59-2.25.86a11.85,11.85,0,0,1-3.17,1"/><path class="cls-1" d="M133.53,175.27c-2.89.24-4.65-.35-5.5-1.86a6.38,6.38,0,0,0,2.13.14c2.38-.19,5-1.42,7.33-2.5a16.49,16.49,0,0,1,4.52-1.7c.66,0,1,.09,1,.25s-.08.23-.28.34l-7.86,3.22c-.46.18-.72.43-.68.65s.24.28.57.26a22.58,22.58,0,0,0,5.27-2.2,11.39,11.39,0,0,1,4-1.55h.52c.27,0,.39.09.4.14s-.08.2-.45.4a56.41,56.41,0,0,1-10.25,4.34c-.23,0-.47.06-.7.07"/><path class="cls-1" d="M126.73,168.63c-.83.07-1.85-.23-2.09-.83h.13c1.59-.14,2.83-1.22,4.27-2.46a23.48,23.48,0,0,1,2.54-2,2.94,2.94,0,0,1,1.24-.45,5.07,5.07,0,0,0,1.75-.56,7.3,7.3,0,0,1,3-1.11,3,3,0,0,1,1.73.34c.41.31.43.41.43.43h-.33a3.76,3.76,0,0,0-.75,0,6.39,6.39,0,0,0-3.35,1.4l-3,.86c-.8.24-1.62.69-1.57,1.06,0,.11.09.23.45.2l.27,0,1.47-.37a4.91,4.91,0,0,0,1.45-.64,5,5,0,0,1,2-.78,10.69,10.69,0,0,0,2.1-.61c.36-.13.73-.27,1.17-.39h0a.43.43,0,0,1,.52.42.56.56,0,0,1-.44.64,17.19,17.19,0,0,1-1.72.41,18.45,18.45,0,0,0-2.84.78,61,61,0,0,0-7.59,3.42,1.9,1.9,0,0,1-.93.3"/><path class="cls-1" d="M145.49,163.72a.79.79,0,0,1-.81-.43.68.68,0,0,1,.23-.72c.16-.5.83-1,1.78-1.61a20.31,20.31,0,0,0,5.23-4.81c1.22-1.8,3.34-3.52,5.8-5.49,1-.83,2.14-1.72,3.26-2.69.41-.44.52-.48.55-.48a1.63,1.63,0,0,1,0,.46c-.31,1.41-1.61,2.92-4,4.63-2.57,1.93-5.34,4.15-6.28,5.93-.22.39-.28.6-.2.73l0,.06.16,0c.14,0,.4-.09,1.23-.72a20.27,20.27,0,0,1,5.21-4.83,12.2,12.2,0,0,0,4.19-4.82,1.19,1.19,0,0,1,.26-.39,4.21,4.21,0,0,1,.08,1.07c0,1.65-1,3.37-3.11,5.11a27.6,27.6,0,0,1-7.48,5.63c-2.81.63-4.56,1.56-5.33,2.83a1,1,0,0,1-.81.51"/><path class="cls-1" d="M154.72,161.82c-.63.05-1.26.08-1.87.11s-1.22,0-1.82.1c-.41,0-.53-.08-.56-.2s.09-.3.45-.43a21.71,21.71,0,0,0,11.3-8.57,1.13,1.13,0,0,1,.7-.37l.29.09a.47.47,0,0,1,.07.39c-1.45,2.79-3.69,4.47-5.88,6.1l-.66.49c-.4.28-.63.63-.55.86s.16.24.35.22a.82.82,0,0,0,.35-.11,26.75,26.75,0,0,0,7.3-7.36c.14-.23.25-.26.28-.26s.15.12.18.37c.22.87-.43,2-1.9,3.46a23.35,23.35,0,0,1-5.13,4.59,13.38,13.38,0,0,1-2.9.52"/><path class="cls-1" d="M148.36,158.8c-.12,0-.22,0-.25-.09a.71.71,0,0,1,0-.54,16.4,16.4,0,0,0,.62-3.23,5.66,5.66,0,0,1,2.19-3.39,46,46,0,0,0,5.28-5.15c.14-.17.2-.18.2-.18s.1.05.13.5c0,.8-.74,1.52-1.89,2.6-.65.61-1.45,1.37-2.29,2.32l-1.94,2.22c-.2.37-.24.62-.16.76l0,.06.24,0a1.73,1.73,0,0,0,.93-.64,24.67,24.67,0,0,1,4-4.51,1.35,1.35,0,0,1,.55-.35c.08.05.15.17,0,.72a4.71,4.71,0,0,1-2,2.59,14.77,14.77,0,0,0-3.43,4.08,5.52,5.52,0,0,1-2.19,2.18"/><path class="cls-1" d="M163.47,148.07a.44.44,0,0,1-.41-.24.78.78,0,0,1,0-.78c1.32-1.36,2.19-3.46,2.76-6.57l.52-1.35c1.11-2.9,2.63-6.86,4.65-9.28.37-.38.51-.41.55-.42s.07.08-.09.64a52.9,52.9,0,0,1-2.57,6.24,45.35,45.35,0,0,0-1.95,4.52c-.12.41-.13.65,0,.77l0,.05.16,0a1.07,1.07,0,0,0,.55-.34c1.43-1.88,2.32-4.58,3.18-7.19a35.27,35.27,0,0,1,2-5.32c.36-.57.51-.63.55-.63s.14,0,.17.87c-.07,3.2-1.3,7-3.78,11.55a8.54,8.54,0,0,1-1.55,1.57,5.15,5.15,0,0,0-1.59,1.78,14,14,0,0,1-2.6,3.71,1.27,1.27,0,0,1-.64.37"/><path class="cls-1" d="M164.38,142.65c-.08,0-.2,0-.39-.24-2.8-4.23,0-9.19,2.83-12.57.32-.31.52-.37.61-.37s.2.25.11.46a5.33,5.33,0,0,0-1.32,3,6.93,6.93,0,0,1-1.23,2.79,5.81,5.81,0,0,0-.61,1c-.38.81-.49,1.42-.33,1.67l0,0,.19.05c.2,0,.36-.23.49-.4a26.43,26.43,0,0,0,2-4.57,13.08,13.08,0,0,1,1.66-3.61c.23-.28.4-.35.5-.36l.23.1a.78.78,0,0,1,.15.62,33.55,33.55,0,0,1-3.09,6.83,7.54,7.54,0,0,0-1.18,3.44c-.18,1.12-.34,2.08-.62,2.1"/><path class="cls-1" d="M168.12,144.37l-.21-.05s-.06-.18.21-.64a16,16,0,0,0,4.28-5.93c.56-2.84,1.41-4.29,3.08-5.26a2.48,2.48,0,0,1,.77-.31s0,.19-.48.81a12.59,12.59,0,0,0-2,4,13.08,13.08,0,0,1-1.94,3.88c-.31.43-.4.68-.32.82l0,.06.18,0a2,2,0,0,0,.51-.19c.71-.5,1.26-2,1.89-3.7a17.21,17.21,0,0,1,2.62-5.25c.36-.26.51-.32.57-.32s.1.11-.19.79c-.45,1-.83,2.12-1.17,3.17a20.55,20.55,0,0,1-2.69,5.81,6,6,0,0,1-1.73,1.12c-.39.16-.76.28-1.14.4a9.91,9.91,0,0,0-1.25.46,3.65,3.65,0,0,1-1,.33"/><path class="cls-1" d="M172.22,122.26c-.11,0-.27-.07-.46-.25-2.55-2-3.18-5.28-2-10.39.07-.23.12-.39.15-.52l.2.13a2.25,2.25,0,0,1,.44,2.49,9.38,9.38,0,0,0,.28,5.48c.16.35.39.44.54.43h.06l.17-.15a.47.47,0,0,0,0-.47,6.82,6.82,0,0,1-.32-4.16,3.1,3.1,0,0,0,.1-1.29c-.09-.31-.05-.39,0-.4h0a.7.7,0,0,1,.39.13c.36.39.7,1.09.41,3.22a6.85,6.85,0,0,0,.17,3.21,3,3,0,0,1,.16,2.23c-.08.2-.16.31-.27.31"/><path class="cls-1" d="M172.81,127.67a.54.54,0,0,1-.46-.18.69.69,0,0,1-.15-.61,19.35,19.35,0,0,1,.51-3.32,13.54,13.54,0,0,0,.48-4c-.14-4.93.35-7.81,1.55-9.12a1,1,0,0,1,.5-.31c.14,0,.25.17.31.55a5.41,5.41,0,0,1-.76,3.77,13.13,13.13,0,0,0-.56,5.21.62.62,0,0,0,.19.51.44.44,0,0,0,.39.14c.25,0,.51-.25.54-.85a10.36,10.36,0,0,1,.55-5.16,5.11,5.11,0,0,0,.39-3.57c0-.34,0-.39,0-.39s.11,0,.36.23.74.78.8,2.6a17.71,17.71,0,0,1-.87,6.1,19.31,19.31,0,0,1-1.45,2.49,11,11,0,0,0-1.46,2.73,3.76,3.76,0,0,0-.28,2.38.71.71,0,0,1-.61.75"/><path class="cls-1" d="M174.94,124.66l-.12,0s-.08-.22.13-.75l2.53-4.17c.56-.74.84-2.92.88-6.84,0-.41,0-.53.06-.58h.05l.22.09c.42.25.81.64.55,1.65l-.58,3.42-.43,2.29a.75.75,0,0,0,.13.57l0,0,.19.05c.2,0,.41-.22.41-.62a6,6,0,0,1,.67-3,8.36,8.36,0,0,0,0-4.52c0-.23,0-.3,0-.32a3.14,3.14,0,0,1,.41.38,3.2,3.2,0,0,1,.8,3.12,4.17,4.17,0,0,0-.25,2.17,4.1,4.1,0,0,1-.87,2.93l-3.59,3.5a3,3,0,0,1-1.17.62"/><path class="cls-2" d="M225.85,70.8a8.39,8.39,0,0,0-4.9-1.36,8,8,0,0,0-4.07,1.06,14.3,14.3,0,0,0-3,9.1c0,6.29,3.21,10.1,8.35,10.1a10.31,10.31,0,0,0,3.54-.56c0-2.06-.2-4.77-.6-5.33A10,10,0,0,0,222,82.25l.5-2.32h12.58l.49,2.32-3,1.13a52.3,52.3,0,0,0-.33,6.48v.67a20.33,20.33,0,0,1-11,3.14c-9.07,0-14.7-5.13-14.7-13.5s7.25-14.3,15.72-14.3a21.82,21.82,0,0,1,9.93,2.31l.67,1.16c-.37,2-1.2,5.6-1.49,6.85-1,0-3.25-.06-4.14-.19A20.74,20.74,0,0,0,225.85,70.8Z"/><path class="cls-2" d="M239.23,80.56A14.47,14.47,0,0,1,254,65.87c7.91,0,13.38,5,13.38,13.1,0,8.68-6.46,14.7-14.4,14.7C244.82,93.67,239.23,88.71,239.23,80.56Zm19.19,7.65A16.83,16.83,0,0,0,260,80.5c0-6.59-2-10.56-7-10.56a7.39,7.39,0,0,0-4.24,1.19,15.32,15.32,0,0,0-2.31,8.64c0,6.12,2.71,9.93,7.28,9.93A6.79,6.79,0,0,0,258.42,88.21Z"/><path class="cls-2" d="M273.13,89.53a49.77,49.77,0,0,0,.33-6.45V76.46c0-2-.1-5.36-.56-6a7.28,7.28,0,0,0-3.08-1.62l.5-2.32h6.09c1.35,0,5.52-.23,7.41-.23,6.59,0,10.56,2.28,10.56,6.78,0,2.92-2,4.87-4.44,6.09,3.15.8,5.73,2.78,5.73,6.39,0,5.2-5,7.78-10.52,7.78-2.42,0-6-.33-8.48-.33h-6.35l-.5-2.32ZM280.08,78l5.23.23a5.55,5.55,0,0,0,2.12-4.56,5.37,5.37,0,0,0-.9-3.15,5.57,5.57,0,0,0-3.27-.89,11.6,11.6,0,0,0-2.55.29l-.3.1a52,52,0,0,0-.33,6.46Zm.7,11.25a6.73,6.73,0,0,0,3.57.8,7.8,7.8,0,0,0,2.71-.46,5.36,5.36,0,0,0,1.63-4c0-2.32-1.43-3.81-4.27-3.81h-4.34v1.33c0,2,.1,5.36.56,6A.52.52,0,0,0,280.78,89.23Z"/><path class="cls-2" d="M302.47,89.53a51.7,51.7,0,0,0,.33-6.45V76.46c0-2-.1-5.36-.56-6a7.28,7.28,0,0,0-3.08-1.62l.49-2.32h12.91l.5,2.32L309.75,70a50.08,50.08,0,0,0-.33,6.46v6.62c0,2,.1,5.36.56,6a7.33,7.33,0,0,0,3.08,1.62l-.5,2.32H299.65l-.49-2.32Z"/><path class="cls-2" d="M321.33,89.53a49.77,49.77,0,0,0,.33-6.45V76.46c0-2-.09-5.36-.56-6A7.36,7.36,0,0,0,318,68.85l.5-2.32h10.59c4.8,0,8.64-.13,11.79-.33A18.76,18.76,0,0,1,342.09,68c-.3,1.85-1,5.19-1.33,6.52a23.47,23.47,0,0,1-4-.2l-1-4.4a24.07,24.07,0,0,0-4-.33c-1.19,0-2.25,0-3.24.06-.1,1.19-.27,3.84-.27,6.79v2l8-.46.77,1c-.17,1-.37,2.15-.57,3.15l-8.21-.3v1.29c0,2,.1,5.36.57,6a1.59,1.59,0,0,0,.26.26,7.36,7.36,0,0,0,3.51.6,19.75,19.75,0,0,0,3.67-.33l1.33-4.6a25.17,25.17,0,0,1,4.3.2c.1,2.51.1,5.16,0,7.81h-23.4l-.5-2.32Z"/><path class="cls-2" d="M350.2,89.53a51.7,51.7,0,0,0,.33-6.45V76.46c0-2-.1-5.36-.56-6a7.28,7.28,0,0,0-3.08-1.62l.49-2.32h6.42c1.36,0,5.56-.23,7.52-.23,6.38,0,10.29,2.25,10.29,7,0,3.54-2.68,5.76-5.16,7a90.91,90.91,0,0,0,5.29,9.07l2.52,1.32-.5,2.32c-2.55,0-4.8,0-7.81.16-1.26-3-3-6.68-5.1-10.75h-3.7v.66c0,2,.1,5.36.56,6a7.33,7.33,0,0,0,3.08,1.62l-.5,2.32H347.38l-.49-2.32Zm6.95-10.89,5.36.23a6.27,6.27,0,0,0,2.15-5,5.47,5.47,0,0,0-.89-3.41,5.59,5.59,0,0,0-3.25-.89,11.46,11.46,0,0,0-3,.39,50.45,50.45,0,0,0-.33,6.46Z"/><path class="cls-2" d="M380.32,70.47a11.31,11.31,0,0,0-3.08-1.62l.5-2.32c2.74,0,6.09-.07,8.6-.17,2.12,4,8,11.46,12.35,16.75-.07-7.21-.43-11.82-.83-12.64-.37-.53-2.45-1.16-3.91-1.62l.5-2.32h11.68l.5,2.32L403.32,70c-.43,2.12-.66,10.75-.66,22.64l-5.13.49-3.41-5c-2.65-3.64-6.06-8-8.94-11.59.13,6.95.4,11.69.73,12.45.5.59,2.62,1.12,4.4,1.62L389.82,93H377.74l-.5-2.32,3.31-1.16a93.43,93.43,0,0,0,.33-10C380.88,74.41,380.78,71.1,380.32,70.47Z"/><path class="cls-2" d="M409.11,80.56a14.47,14.47,0,0,1,14.73-14.69c7.91,0,13.37,5,13.37,13.1,0,8.68-6.45,14.7-14.39,14.7C414.71,93.67,409.11,88.71,409.11,80.56Zm19.2,7.65a16.83,16.83,0,0,0,1.62-7.71c0-6.59-2-10.56-7-10.56a7.37,7.37,0,0,0-4.24,1.19,15.32,15.32,0,0,0-2.31,8.64c0,6.12,2.71,9.93,7.28,9.93A6.79,6.79,0,0,0,428.31,88.21Z"/><path class="cls-2" d="M454.89,89.53a49.77,49.77,0,0,0,.33-6.45V76.46c0-2-.1-5.36-.56-6a7.21,7.21,0,0,0-3.08-1.62l.5-2.32H458c1.39,0,5.63-.23,7.58-.23,11,0,14.67,6.09,14.67,13.24,0,9.23-6.36,13.8-13.51,13.8-2.42,0-6-.33-8.47-.33h-6.19l-.5-2.32Zm7.75-.2c.76.57,3.77,1.1,6.15.2,2.85-1.55,4.47-5,4.47-10,0-4.11-1.49-7.32-3-8.54a9.7,9.7,0,0,0-5-1.16,19.83,19.83,0,0,0-3.05.2,51.9,51.9,0,0,0-.33,6.42v6.62c0,2,.1,5.36.56,6Z"/><path class="cls-2" d="M486.34,89.53a51.7,51.7,0,0,0,.33-6.45V76.46c0-2-.1-5.36-.57-6A7.38,7.38,0,0,0,483,68.85l.49-2.32h10.59c4.8,0,8.64-.13,11.79-.33A18.76,18.76,0,0,1,507.09,68c-.3,1.85-1,5.19-1.33,6.52a23.47,23.47,0,0,1-4-.2l-1-4.4a24,24,0,0,0-4-.33c-1.2,0-2.26,0-3.25.06-.1,1.19-.26,3.84-.26,6.79v2l8-.46.76,1c-.17,1-.37,2.15-.56,3.15l-8.21-.3v1.29c0,2,.1,5.36.56,6a2.12,2.12,0,0,0,.26.26,7.39,7.39,0,0,0,3.51.6,19.86,19.86,0,0,0,3.68-.33l1.32-4.6a25.12,25.12,0,0,1,4.3.2c.1,2.51.1,5.16,0,7.81h-23.4L483,90.69Z"/><path class="cls-2" d="M226.16,157.25H207.43l-.81-3.78,5.67-1.84c.43-3.45,1-11.06,1.35-17.7.43-8.42.43-11.93,0-13.39-.65-.86-3.19-2.05-5-2.7l.81-3.78h20.62c1.78,6,6.1,18.14,9.39,25.91,3.24-8.74,7.89-20.19,9.4-25.91h19.43l.76,3.83-5.62,2.49,1.14,20.24c.32,5.94.64,9.07,1.45,10.2.6.92,3.13,2.06,5,2.65l-.81,3.78h-21l-.81-3.78,5.94-1.89c.16-3.56-.87-18.19-1-28.72l-11.55,29.53a46.72,46.72,0,0,1-8.69,0c-2.65-6.15-8.1-20.68-12.15-29.47l-.37,13.17c-.27,9.66-.38,13.33.1,14.52.54,1.45,3.73,2,6.37,2.86Z"/><path class="cls-2" d="M285.05,151.58a82.68,82.68,0,0,0,.54-10.53V130.26c0-3.35-.16-8.75-.91-9.77s-3.13-2.06-5-2.65l.81-3.78h17.27c7.83,0,14.09-.21,19.22-.54a27.7,27.7,0,0,1,1.94,3c-.49,3-1.67,8.48-2.16,10.64a38.94,38.94,0,0,1-6.48-.33l-1.62-7.18a39.79,39.79,0,0,0-6.53-.54c-1.94,0-3.67.06-5.29.11-.16,1.94-.43,6.26-.43,11.07v3.18l13.06-.75,1.25,1.62c-.27,1.61-.6,3.5-.92,5.12L296.39,139v2.1c0,3.35.16,8.75.92,9.77a3.53,3.53,0,0,0,.43.44c1.13.75,3.51,1,5.72,1a32.69,32.69,0,0,0,6-.54l2.16-7.51a43.38,43.38,0,0,1,7,.33c.16,4.1.16,8.42,0,12.74H280.47l-.81-3.78ZM307.73,96a28.4,28.4,0,0,1,4.15,7.56l-1.08,2.21-17.65,4.48-1.08-.54L291,106.45C295.9,103.05,302.17,99.16,307.73,96Z"/><path class="cls-2" d="M331.42,151.36c3.56-3.29,8-9.6,12.53-16.3-4.76-6.48-9.29-12.25-11.77-14.9a34.23,34.23,0,0,0-5.19-2.32l.81-3.78c4.86,0,10.85-.11,14.8-.27A153.4,153.4,0,0,0,353,130.42c2-3.56,3.94-7.07,5.56-10.1a42.72,42.72,0,0,0-6-2.48l.81-3.78h19.43l.81,3.78c-1.3.59-3.24,1.57-4.53,2.21-3.67,3.41-8.1,9.24-12.31,15.61,4.86,6.69,9.61,12.73,12.14,15.49,1.52.75,3.4,1.62,5.19,2.32l-.81,3.78c-4.75,0-10.75.11-14.63.27a163.5,163.5,0,0,0-10.91-17.17c-2.1,3.62-4.26,7.51-5.88,10.69,1.89.75,4.59,1.67,7,2.43l-.81,3.78H327.53l-.81-3.78C328,152.93,330,152.06,331.42,151.36Z"/><path class="cls-2" d="M387.56,151.58a82.68,82.68,0,0,0,.54-10.53V130.26c0-3.35-.16-8.75-.92-9.77-.59-.92-3.13-2.06-5-2.65l.81-3.78h21l.81,3.78-5.4,1.89a82.68,82.68,0,0,0-.54,10.53v10.79c0,3.35.17,8.75.92,9.77s3.13,2.06,5,2.65l-.81,3.78H383l-.81-3.78Z"/><path class="cls-2" d="M443.54,150.12a77.28,77.28,0,0,0,2.42-7.61,69,69,0,0,1,7.29.32c.16,2.65.27,6.86.27,9.23l-1,1.95a31.45,31.45,0,0,1-16.41,4.32c-14.36,0-23.21-8.32-23.21-21.92,0-13.87,11.44-23.43,24.56-23.43a35,35,0,0,1,15.92,3.78l1.08,1.89c-.59,3.29-1.67,8-2.43,11.17a55.9,55.9,0,0,1-6.74-.32,34.91,34.91,0,0,0-2.11-8,15.16,15.16,0,0,0-13.82-.43c-2.7,3.29-4.59,8.64-4.59,14.58,0,9.39,4.75,15.65,12.74,15.65A12.75,12.75,0,0,0,443.54,150.12Z"/><path class="cls-2" d="M462.86,137c0-14.25,11.17-24,24-24s21.81,8.1,21.81,21.38c0,14.14-10.53,24-23.48,24C472,158.33,462.86,150.23,462.86,137Zm31.31,12.47c1.35-2.43,2.64-7,2.64-12.58,0-10.74-3.24-17.22-11.39-17.22a12,12,0,0,0-6.91,1.95c-2.27,3.23-3.78,8.2-3.78,14.09,0,10,4.43,16.19,11.88,16.19C489.85,151.85,492.55,150.93,494.17,149.42Z"/><rect class="cls-3" width="551.43" height="223.56"/></svg>